<?xml version="1.0" encoding="UTF-8" standalone="no"?>
<!-- Created with Inkscape (http://www.inkscape.org/) -->

<svg
   width="155mm"
   height="105mm"
   viewBox="0 0 155 105"
   version="1.1"
   id="svg1"
   inkscape:version="1.4.1 (1:1.4.1+202503302257+93de688d07)"
   sodipodi:docname="taskSpace01.svg"
   inkscape:export-filename="taskSpace01.png"
   inkscape:export-xdpi="96"
   inkscape:export-ydpi="96"
   xmlns:inkscape="http://www.inkscape.org/namespaces/inkscape"
   xmlns:sodipodi="http://sodipodi.sourceforge.net/DTD/sodipodi-0.dtd"
   xmlns="http://www.w3.org/2000/svg"
   xmlns:svg="http://www.w3.org/2000/svg"
   xmlns:ns2="http://www.iki.fi/pav/software/textext/">
  <sodipodi:namedview
     id="namedview1"
     pagecolor="#ffffff"
     bordercolor="#000000"
     borderopacity="0.25"
     inkscape:showpageshadow="2"
     inkscape:pageopacity="0.0"
     inkscape:pagecheckerboard="0"
     inkscape:deskcolor="#d1d1d1"
     inkscape:document-units="mm"
     inkscape:zoom="1.2436942"
     inkscape:cx="331.67317"
     inkscape:cy="293.07848"
     inkscape:window-width="849"
     inkscape:window-height="1400"
     inkscape:window-x="854"
     inkscape:window-y="0"
     inkscape:window-maximized="1"
     inkscape:current-layer="layer1" />
  <defs
     id="defs1">
    <marker
       style="overflow:visible"
       id="Triangle"
       refX="0"
       refY="0"
       orient="auto-start-reverse"
       inkscape:stockid="Triangle arrow"
       markerWidth="1"
       markerHeight="1"
       viewBox="0 0 1 1"
       inkscape:isstock="true"
       inkscape:collect="always"
       preserveAspectRatio="xMidYMid">
      <path
         transform="scale(0.5)"
         style="fill:context-stroke;fill-rule:evenodd;stroke:context-stroke;stroke-width:1pt"
         d="M 5.77,0 -2.88,5 V -5 Z"
         id="path135" />
    </marker>
    <inkscape:path-effect
       effect="bspline"
       id="path-effect79"
       is_visible="true"
       lpeversion="1.3"
       weight="33.333333"
       steps="2"
       helper_size="0"
       apply_no_weight="true"
       apply_with_weight="true"
       only_selected="false"
       uniform="false" />
    <linearGradient
       id="linearGradient73"
       inkscape:swatch="gradient">
      <stop
         style="stop-color:#000000;stop-opacity:1;"
         offset="0"
         id="stop73" />
      <stop
         style="stop-color:#000000;stop-opacity:0;"
         offset="1"
         id="stop74" />
    </linearGradient>
    <rect
       x="368.42273"
       y="217.18745"
       width="286.55099"
       height="93.242783"
       id="rect67" />
    <marker
       style="overflow:visible"
       id="Triangle-2"
       refX="0"
       refY="0"
       orient="auto-start-reverse"
       inkscape:stockid="Triangle arrow"
       markerWidth="1"
       markerHeight="1"
       viewBox="0 0 1 1"
       inkscape:isstock="true"
       inkscape:collect="always"
       preserveAspectRatio="xMidYMid">
      <path
         transform="scale(0.5)"
         style="fill:context-stroke;fill-rule:evenodd;stroke:context-stroke;stroke-width:1pt"
         d="M 5.77,0 -2.88,5 V -5 Z"
         id="path135-5" />
    </marker>
  </defs>
  <g
     inkscape:label="Layer 1"
     inkscape:groupmode="layer"
     id="layer1">
    <g
       transform="matrix(0.93591294,0,0,0.93591294,7.381328,9.252541)"
       ns2:version="1.11.1"
       ns2:texconverter="pdflatex"
       ns2:pdfconverter="inkscape"
       ns2:text="\\[\n\\mathbf{x_{n}}^{T} = \\begin{bmatrix}\n\\text{'M'} \\\\\n0.455 \\\\\n0.365 \\\\\n0.095 \\\\\n0.514 \\\\\n0.2245 \\\\\n0.101 \\\\\n0.15\n\\end{bmatrix}\n\\]"
       ns2:preamble="/home/doryan/.config/inkscape/extensions/textext/default_packages.tex"
       ns2:scale="1.6898532939205357"
       ns2:alignment="middle center"
       ns2:jacobian_sqrt="0.596143"
       id="g67">
      <defs
         id="id-ff4d1690-4656-4130-94ee-2ceec6790bd2">
        <g
           id="id-f1391453-747a-4c53-bc9f-cf3a72227ac4">
          <g
             id="id-827ff9f4-e530-49fb-ba35-18b550976b05">
            <path
               d="M 3.453125,-2.453125 4.609375,-3.75 C 4.75,-3.890625 4.8125,-3.953125 5.625,-3.953125 v -0.46875 c -0.34375,0.015625 -0.859375,0.03125 -0.90625,0.03125 -0.25,0 -0.75,-0.03125 -1.03125,-0.03125 v 0.46875 c 0.140625,0 0.265625,0.015625 0.375,0.078125 -0.03125,0.0625 -0.03125,0.09375 -0.078125,0.125 L 3.15625,-2.8125 2.171875,-3.953125 h 0.40625 v -0.46875 c -0.265625,0 -0.890625,0.03125 -1.21875,0.03125 -0.3125,0 -0.765625,-0.03125 -1.09375,-0.03125 v 0.46875 h 0.71875 L 2.53125,-2.125 1.21875,-0.65625 c -0.15625,0.1875 -0.515625,0.1875 -1,0.1875 V 0 c 0.34375,-0.015625 0.875,-0.03125 0.921875,-0.03125 0.25,0 0.828125,0.015625 1.015625,0.03125 v -0.46875 c -0.171875,0 -0.359375,-0.046875 -0.359375,-0.109375 0,-0.015625 0,-0.015625 0.0625,-0.09375 l 0.96875,-1.09375 1.09375,1.296875 H 3.53125 V 0 c 0.265625,-0.015625 0.875,-0.03125 1.203125,-0.03125 0.3125,0 0.765625,0.015625 1.09375,0.03125 V -0.46875 H 5.125 Z m 0,0"
               id="id-eec815cc-faee-4a31-967a-d86e786a45a7" />
          </g>
          <g
             id="id-40ebf0ca-72a0-4724-bca1-c20a8698d5cb">
            <path
               d="m 4.265625,-2.09375 c 0,-0.859375 -0.546875,-1.046875 -1.1875,-1.046875 -0.84375,0 -1.234375,0.5 -1.375,0.734375 v -0.734375 l -1.25,0.0625 V -2.6875 c 0.40625,0 0.453125,0 0.453125,0.265625 v 2.03125 H 0.453125 V 0 c 0,0 0.5625,-0.03125 0.90625,-0.03125 C 1.6875,-0.03125 2.265625,0 2.265625,0 v -0.390625 h -0.46875 v -1.34375 c 0,-0.8125 0.71875,-1.078125 1.140625,-1.078125 0.3125,0 0.4375,0.15625 0.4375,0.65625 v 1.765625 H 2.90625 V 0 C 2.921875,0 3.484375,-0.03125 3.8125,-0.03125 4.15625,-0.03125 4.71875,0 4.734375,0 v -0.390625 h -0.46875 z m 0,0"
               id="id-b335dace-a690-4a70-a82b-c5c1fe8ad87e" />
          </g>
          <g
             id="id-d354ee8b-405a-4064-8e6b-5a9922adbec2">
            <path
               d="m 3.390625,-4.21875 c 0.046875,-0.203125 0.0625,-0.21875 0.21875,-0.234375 0.03125,0 0.265625,0 0.40625,0 0.4375,0 0.609375,0 0.78125,0.046875 0.3125,0.09375 0.328125,0.296875 0.328125,0.546875 0,0.109375 0,0.203125 -0.046875,0.5625 L 5.0625,-3.21875 c 0,0.078125 0.046875,0.109375 0.125,0.109375 0.109375,0 0.109375,-0.0625 0.125,-0.171875 L 5.5,-4.609375 c 0,-0.09375 -0.078125,-0.09375 -0.203125,-0.09375 h -4.28125 c -0.171875,0 -0.1875,0 -0.234375,0.140625 l -0.453125,1.234375 c 0,0.03125 -0.03125,0.09375 -0.03125,0.125 0,0.03125 0.015625,0.09375 0.125,0.09375 0.09375,0 0.09375,-0.03125 0.140625,-0.171875 0.40625,-1.109375 0.640625,-1.171875 1.703125,-1.171875 h 0.28125 c 0.21875,0 0.21875,0 0.21875,0.0625 0,0 0,0.046875 -0.03125,0.140625 L 1.8125,-0.578125 C 1.75,-0.328125 1.734375,-0.25 1,-0.25 c -0.25,0 -0.3125,0 -0.3125,0.15625 C 0.6875,-0.078125 0.703125,0 0.8125,0 1,0 1.21875,-0.015625 1.40625,-0.015625 1.609375,-0.015625 1.8125,-0.03125 2,-0.03125 c 0.203125,0 0.4375,0 0.640625,0.015625 C 2.828125,-0.015625 3.03125,0 3.21875,0 3.28125,0 3.375,0 3.375,-0.15625 3.375,-0.25 3.3125,-0.25 3.09375,-0.25 c -0.125,0 -0.265625,-0.015625 -0.40625,-0.015625 -0.234375,-0.015625 -0.25,-0.046875 -0.25,-0.125 0,-0.0625 0,-0.0625 0.03125,-0.171875 z m 0,0"
               id="id-2b01b594-fcb0-4d92-8802-ff9fb75a6af6" />
          </g>
          <g
             id="id-9bc2f782-cc3c-401e-b18f-3861b051f539">
            <path
               d="m 6.84375,-3.265625 c 0.15625,0 0.34375,0 0.34375,-0.1875 C 7.1875,-3.65625 7,-3.65625 6.859375,-3.65625 h -5.96875 c -0.140625,0 -0.328125,0 -0.328125,0.203125 0,0.1875 0.1875,0.1875 0.328125,0.1875 z m 0.015625,1.9375 c 0.140625,0 0.328125,0 0.328125,-0.203125 0,-0.1875 -0.1875,-0.1875 -0.34375,-0.1875 H 0.890625 c -0.140625,0 -0.328125,0 -0.328125,0.1875 0,0.203125 0.1875,0.203125 0.328125,0.203125 z m 0,0"
               id="id-d1e06104-1ae3-43a2-8284-fa36b614a16c" />
          </g>
          <g
             id="id-5eb33dec-eba2-4419-927c-4a9ea4ace2c2">
            <path
               d="m 2.046875,-5.875 c 0,-0.59375 -0.234375,-1.046875 -0.65625,-1.046875 -0.359375,0 -0.53125,0.265625 -0.53125,0.53125 0,0.265625 0.171875,0.53125 0.53125,0.53125 0.1875,0 0.328125,-0.109375 0.390625,-0.15625 0.015625,-0.03125 0.015625,-0.03125 0.03125,-0.03125 0.015625,0 0.015625,0.140625 0.015625,0.171875 0,0.328125 -0.0625,1.046875 -0.6875,1.65625 -0.125,0.125 -0.125,0.140625 -0.125,0.171875 0,0.0625 0.046875,0.109375 0.09375,0.109375 0.109375,0 0.9375,-0.75 0.9375,-1.9375 z m 0,0"
               id="id-5c9af3ce-a440-4642-b893-8530e1e2e458" />
          </g>
          <g
             id="id-ccd61a70-55b3-457a-9e52-2c3e3b275697">
            <path
               d="M 2.40625,-6.59375 C 2.3125,-6.8125 2.28125,-6.8125 2.046875,-6.8125 H 0.375 V -6.5 h 0.234375 c 0.765625,0 0.78125,0.109375 0.78125,0.46875 v 4.984375 c 0,0.265625 0,0.734375 -1.015625,0.734375 V 0 c 0.34375,-0.015625 0.828125,-0.03125 1.15625,-0.03125 0.328125,0 0.828125,0.015625 1.171875,0.03125 v -0.3125 c -1.03125,0 -1.03125,-0.46875 -1.03125,-0.734375 v -5.375 H 1.6875 L 4.09375,-0.21875 C 4.140625,-0.09375 4.1875,0 4.28125,0 4.390625,0 4.421875,-0.078125 4.46875,-0.1875 L 6.921875,-6.5 v 5.71875 c 0,0.359375 -0.015625,0.46875 -0.78125,0.46875 H 5.90625 V 0 c 0.359375,-0.03125 1.046875,-0.03125 1.4375,-0.03125 0.375,0 1.046875,0 1.421875,0.03125 v -0.3125 h -0.25 c -0.765625,0 -0.78125,-0.109375 -0.78125,-0.46875 v -5.25 C 7.734375,-6.390625 7.75,-6.5 8.515625,-6.5 h 0.25 v -0.3125 h -1.6875 C 6.8125,-6.8125 6.8125,-6.796875 6.75,-6.625 L 4.5625,-1 Z m 0,0"
               id="id-e87c0c07-3a34-4887-987e-d9fc814caff9" />
          </g>
          <g
             id="id-cc080c13-8833-4292-bf5c-484c3a080811">
            <path
               d="m 4.578125,-3.1875 c 0,-0.796875 -0.046875,-1.59375 -0.390625,-2.328125 -0.453125,-0.96875 -1.28125,-1.125 -1.6875,-1.125 -0.609375,0 -1.328125,0.265625 -1.75,1.1875 -0.3125,0.6875 -0.359375,1.46875 -0.359375,2.265625 0,0.75 0.03125,1.640625 0.453125,2.40625 0.421875,0.796875 1.15625,1 1.640625,1 0.53125,0 1.296875,-0.203125 1.734375,-1.15625 0.3125,-0.6875 0.359375,-1.46875 0.359375,-2.25 z M 2.484375,0 C 2.09375,0 1.5,-0.25 1.328125,-1.203125 1.21875,-1.796875 1.21875,-2.71875 1.21875,-3.3125 c 0,-0.640625 0,-1.296875 0.078125,-1.828125 0.1875,-1.1875 0.9375,-1.28125 1.1875,-1.28125 0.328125,0 0.984375,0.1875 1.171875,1.171875 0.109375,0.5625 0.109375,1.3125 0.109375,1.9375 0,0.75 0,1.421875 -0.109375,2.0625 C 3.5,-0.296875 2.9375,0 2.484375,0 Z m 0,0"
               id="id-a65c782d-a73c-415d-b065-1e52c74637bf" />
          </g>
          <g
             id="id-e6ff58b3-5e5c-4867-95de-b1e86cab8bad">
            <path
               d="m 2.9375,-1.640625 v 0.859375 c 0,0.359375 -0.03125,0.46875 -0.765625,0.46875 H 1.96875 V 0 C 2.375,-0.03125 2.890625,-0.03125 3.3125,-0.03125 c 0.421875,0 0.9375,0 1.359375,0.03125 v -0.3125 h -0.21875 c -0.734375,0 -0.75,-0.109375 -0.75,-0.46875 V -1.640625 H 4.6875 v -0.3125 H 3.703125 v -4.53125 c 0,-0.203125 0,-0.265625 -0.171875,-0.265625 -0.078125,0 -0.109375,0 -0.1875,0.125 l -3.0625,4.671875 v 0.3125 z m 0.046875,-0.3125 H 0.5625 l 2.421875,-3.71875 z m 0,0"
               id="id-b1f4d552-a42b-46e0-992e-e18126c51ad7" />
          </g>
          <g
             id="id-37d668d8-1cae-49d6-ac88-be498d7322f2">
            <path
               d="m 4.46875,-2 c 0,-1.1875 -0.8125,-2.1875 -1.890625,-2.1875 -0.46875,0 -0.90625,0.15625 -1.265625,0.515625 V -5.625 c 0.203125,0.0625 0.53125,0.125 0.84375,0.125 1.234375,0 1.9375,-0.90625 1.9375,-1.03125 0,-0.0625 -0.03125,-0.109375 -0.109375,-0.109375 0,0 -0.03125,0 -0.078125,0.03125 C 3.703125,-6.515625 3.21875,-6.3125 2.546875,-6.3125 2.15625,-6.3125 1.6875,-6.390625 1.21875,-6.59375 1.140625,-6.625 1.125,-6.625 1.109375,-6.625 1,-6.625 1,-6.546875 1,-6.390625 V -3.4375 c 0,0.171875 0,0.25 0.140625,0.25 0.078125,0 0.09375,-0.015625 0.140625,-0.078125 C 1.390625,-3.421875 1.75,-3.96875 2.5625,-3.96875 c 0.515625,0 0.765625,0.453125 0.84375,0.640625 0.15625,0.375 0.1875,0.75 0.1875,1.25 0,0.359375 0,0.953125 -0.25,1.375 C 3.109375,-0.3125 2.734375,-0.0625 2.28125,-0.0625 c -0.71875,0 -1.296875,-0.53125 -1.46875,-1.109375 0.03125,0 0.0625,0.015625 0.171875,0.015625 0.328125,0 0.5,-0.25 0.5,-0.484375 0,-0.25 -0.171875,-0.5 -0.5,-0.5 C 0.84375,-2.140625 0.5,-2.0625 0.5,-1.609375 0.5,-0.75 1.1875,0.21875 2.296875,0.21875 3.453125,0.21875 4.46875,-0.734375 4.46875,-2 Z m 0,0"
               id="id-3637d067-f87c-4f09-90bb-4735ef1ba75e" />
          </g>
          <g
             id="id-bab76055-4413-4f06-a2fb-2fa64b2f5d79">
            <path
               d="m 2.890625,-3.515625 c 0.8125,-0.265625 1.390625,-0.953125 1.390625,-1.75 0,-0.8125 -0.875,-1.375 -1.828125,-1.375 -1,0 -1.765625,0.59375 -1.765625,1.359375 0,0.328125 0.21875,0.515625 0.515625,0.515625 0.296875,0 0.5,-0.21875 0.5,-0.515625 0,-0.484375 -0.46875,-0.484375 -0.609375,-0.484375 0.296875,-0.5 0.953125,-0.625 1.3125,-0.625 0.421875,0 0.96875,0.21875 0.96875,1.109375 0,0.125 -0.03125,0.703125 -0.28125,1.140625 C 2.796875,-3.65625 2.453125,-3.625 2.203125,-3.625 2.125,-3.609375 1.890625,-3.59375 1.8125,-3.59375 c -0.078125,0.015625 -0.140625,0.03125 -0.140625,0.125 0,0.109375 0.0625,0.109375 0.234375,0.109375 h 0.4375 c 0.8125,0 1.1875,0.671875 1.1875,1.65625 0,1.359375 -0.6875,1.640625 -1.125,1.640625 -0.4375,0 -1.1875,-0.171875 -1.53125,-0.75 0.34375,0.046875 0.65625,-0.171875 0.65625,-0.546875 0,-0.359375 -0.265625,-0.5625 -0.546875,-0.5625 -0.25,0 -0.5625,0.140625 -0.5625,0.578125 0,0.90625 0.921875,1.5625 2.015625,1.5625 1.21875,0 2.125,-0.90625 2.125,-1.921875 0,-0.8125 -0.640625,-1.59375 -1.671875,-1.8125 z m 0,0"
               id="id-47ac865e-a206-4f0c-b5bc-77455d382afd" />
          </g>
          <g
             id="id-3364c236-ed54-4aaa-82ed-db4cb3535050">
            <path
               d="m 1.3125,-3.265625 v -0.25 c 0,-2.515625 1.234375,-2.875 1.75,-2.875 0.234375,0 0.65625,0.0625 0.875,0.40625 -0.15625,0 -0.546875,0 -0.546875,0.4375 0,0.3125 0.234375,0.46875 0.453125,0.46875 0.15625,0 0.46875,-0.09375 0.46875,-0.484375 0,-0.59375 -0.4375,-1.078125 -1.265625,-1.078125 -1.28125,0 -2.625,1.28125 -2.625,3.484375 0,2.671875 1.15625,3.375 2.078125,3.375 1.109375,0 2.0625,-0.9375 2.0625,-2.25 0,-1.265625 -0.890625,-2.21875 -2,-2.21875 -0.671875,0 -1.046875,0.5 -1.25,0.984375 z M 2.5,-0.0625 c -0.625,0 -0.921875,-0.59375 -0.984375,-0.75 -0.1875,-0.46875 -0.1875,-1.265625 -0.1875,-1.4375 0,-0.78125 0.328125,-1.78125 1.21875,-1.78125 0.171875,0 0.625,0 0.9375,0.625 0.171875,0.359375 0.171875,0.875 0.171875,1.359375 0,0.484375 0,0.984375 -0.171875,1.34375 C 3.1875,-0.109375 2.734375,-0.0625 2.5,-0.0625 Z m 0,0"
               id="id-62331d70-f997-400e-baea-201298aa0e58" />
          </g>
          <g
             id="id-e23594b2-a06a-4c70-a737-1f5e4eb165fa">
            <path
               d="m 3.65625,-3.171875 v 0.328125 c 0,2.328125 -1.03125,2.78125 -1.609375,2.78125 -0.171875,0 -0.71875,-0.015625 -0.984375,-0.359375 0.4375,0 0.515625,-0.28125 0.515625,-0.453125 0,-0.3125 -0.234375,-0.453125 -0.453125,-0.453125 -0.15625,0 -0.453125,0.078125 -0.453125,0.46875 0,0.671875 0.53125,1.078125 1.375,1.078125 1.296875,0 2.515625,-1.359375 2.515625,-3.5 0,-2.6875 -1.15625,-3.359375 -2.046875,-3.359375 -0.546875,0 -1.03125,0.1875 -1.453125,0.625 -0.421875,0.453125 -0.640625,0.875 -0.640625,1.625 0,1.234375 0.875,2.21875 1.984375,2.21875 0.609375,0 1.015625,-0.421875 1.25,-1 z M 2.421875,-2.40625 c -0.15625,0 -0.625,0 -0.921875,-0.625 -0.1875,-0.375 -0.1875,-0.859375 -0.1875,-1.359375 0,-0.53125 0,-1 0.21875,-1.375 0.265625,-0.5 0.640625,-0.625 0.984375,-0.625 0.46875,0 0.796875,0.34375 0.96875,0.78125 0.109375,0.328125 0.15625,0.953125 0.15625,1.40625 0,0.828125 -0.34375,1.796875 -1.21875,1.796875 z m 0,0"
               id="id-086383b4-901e-42bb-987b-a1ac32861ffd" />
          </g>
          <g
             id="id-8d04e0ac-df3b-4241-a8ef-cf68f59e14af">
            <path
               d="m 2.9375,-6.375 c 0,-0.25 0,-0.265625 -0.234375,-0.265625 C 2.078125,-6 1.203125,-6 0.890625,-6 v 0.3125 c 0.203125,0 0.78125,0 1.296875,-0.265625 v 5.171875 c 0,0.359375 -0.03125,0.46875 -0.921875,0.46875 h -0.3125 V 0 c 0.34375,-0.03125 1.203125,-0.03125 1.609375,-0.03125 0.390625,0 1.265625,0 1.609375,0.03125 v -0.3125 h -0.3125 c -0.90625,0 -0.921875,-0.109375 -0.921875,-0.46875 z m 0,0"
               id="id-2aa83684-051f-443e-972a-f22306e5bde8" />
          </g>
          <g
             id="id-f36f298c-8809-4c2b-bc25-06b450f346a9">
            <path
               d="m 1.265625,-0.765625 1.0625,-1.03125 c 1.546875,-1.375 2.140625,-1.90625 2.140625,-2.90625 0,-1.140625 -0.890625,-1.9375 -2.109375,-1.9375 -1.125,0 -1.859375,0.921875 -1.859375,1.8125 0,0.546875 0.5,0.546875 0.53125,0.546875 0.171875,0 0.515625,-0.109375 0.515625,-0.53125 0,-0.25 -0.1875,-0.515625 -0.53125,-0.515625 -0.078125,0 -0.09375,0 -0.125,0.015625 0.21875,-0.65625 0.765625,-1.015625 1.34375,-1.015625 0.90625,0 1.328125,0.8125 1.328125,1.625 C 3.5625,-3.90625 3.078125,-3.125 2.515625,-2.5 l -1.90625,2.125 C 0.5,-0.265625 0.5,-0.234375 0.5,0 H 4.203125 L 4.46875,-1.734375 H 4.234375 C 4.171875,-1.4375 4.109375,-1 4,-0.84375 3.9375,-0.765625 3.28125,-0.765625 3.0625,-0.765625 Z m 0,0"
               id="id-78423358-f41b-46ad-8a3f-1899523f4891" />
          </g>
          <g
             id="id-eb8e4a00-202d-418f-8d01-c85fbeb9ef49">
            <path
               d="m 3.25,17.546875 h 0.6875 v -17.25 h 2.625 v -0.6875 H 3.25 Z m 0,0"
               id="id-bab24adf-5959-4934-a0f1-829c442f2375" />
          </g>
          <g
             id="id-4afbf5ae-087d-45ec-8b22-88b72c5f07c4">
            <path
               d="m 3.25,5.984375 h 0.6875 v -6 H 3.25 Z m 0,0"
               id="id-5b092726-b513-4085-a59f-af76bb706f54" />
          </g>
          <g
             id="id-c9e45c3d-1817-4be1-8895-1d846b044bbf">
            <path
               d="m 3.25,17.53125 h 3.3125 v -0.6875 h -2.625 v -17.25 H 3.25 Z m 0,0"
               id="id-57fbc3a0-2939-4046-80ba-ae2d3131bb50" />
          </g>
          <g
             id="id-6e9c4acf-cdb6-4338-8c56-549fcdc079f5">
            <path
               d="m 2.703125,17.546875 h 0.6875 v -17.9375 H 0.0625 v 0.6875 h 2.640625 z m 0,0"
               id="id-7abdda64-6308-4eef-a51e-b901225bf785" />
          </g>
          <g
             id="id-55ce9f80-222a-4b99-a857-77cf518d005a">
            <path
               d="m 2.703125,5.984375 h 0.6875 v -6 h -0.6875 z m 0,0"
               id="id-e1a9c18d-ac8f-406e-9674-56f0a96648e7" />
          </g>
          <g
             id="id-e6e545a5-55c5-426a-9326-e68ddb8771a2">
            <path
               d="M 2.703125,16.84375 H 0.0625 v 0.6875 h 3.328125 v -17.9375 h -0.6875 z m 0,0"
               id="id-f381564a-64b5-45f4-a337-9cae2fbc0049" />
          </g>
          <g
             id="id-10dc2bd6-4f9b-452e-8312-322477bcd50c">
            <path
               d="m 1.90625,-0.53125 c 0,-0.28125 -0.234375,-0.53125 -0.515625,-0.53125 -0.296875,0 -0.53125,0.25 -0.53125,0.53125 C 0.859375,-0.234375 1.09375,0 1.390625,0 1.671875,0 1.90625,-0.234375 1.90625,-0.53125 Z m 0,0"
               id="id-ad0b0f42-d3bc-4d0c-9fb6-f32c6060cec9" />
          </g>
        </g>
      </defs>
      <g
         fill="#000000"
         fill-opacity="1"
         id="id-2b2fea3a-4148-4175-a8bd-9fa7fdc92dcd"
         transform="translate(-269.807,-135.768)">
        <g
           transform="translate(269.588,186.073)"
           id="g1">
          <path
             d="M 3.453125,-2.453125 4.609375,-3.75 C 4.75,-3.890625 4.8125,-3.953125 5.625,-3.953125 v -0.46875 c -0.34375,0.015625 -0.859375,0.03125 -0.90625,0.03125 -0.25,0 -0.75,-0.03125 -1.03125,-0.03125 v 0.46875 c 0.140625,0 0.265625,0.015625 0.375,0.078125 -0.03125,0.0625 -0.03125,0.09375 -0.078125,0.125 L 3.15625,-2.8125 2.171875,-3.953125 h 0.40625 v -0.46875 c -0.265625,0 -0.890625,0.03125 -1.21875,0.03125 -0.3125,0 -0.765625,-0.03125 -1.09375,-0.03125 v 0.46875 h 0.71875 L 2.53125,-2.125 1.21875,-0.65625 c -0.15625,0.1875 -0.515625,0.1875 -1,0.1875 V 0 c 0.34375,-0.015625 0.875,-0.03125 0.921875,-0.03125 0.25,0 0.828125,0.015625 1.015625,0.03125 v -0.46875 c -0.171875,0 -0.359375,-0.046875 -0.359375,-0.109375 0,-0.015625 0,-0.015625 0.0625,-0.09375 l 0.96875,-1.09375 1.09375,1.296875 H 3.53125 V 0 c 0.265625,-0.015625 0.875,-0.03125 1.203125,-0.03125 0.3125,0 0.765625,0.015625 1.09375,0.03125 V -0.46875 H 5.125 Z m 0,0"
             id="id-64c78115-c555-4a03-80c5-819f117d718f" />
        </g>
      </g>
      <g
         fill="#000000"
         fill-opacity="1"
         id="id-e877fa27-824b-4f51-bd47-5df5b21bb372"
         transform="translate(-269.807,-135.768)">
        <g
           transform="translate(275.635,187.567)"
           id="g2">
          <path
             d="m 4.265625,-2.09375 c 0,-0.859375 -0.546875,-1.046875 -1.1875,-1.046875 -0.84375,0 -1.234375,0.5 -1.375,0.734375 v -0.734375 l -1.25,0.0625 V -2.6875 c 0.40625,0 0.453125,0 0.453125,0.265625 v 2.03125 H 0.453125 V 0 c 0,0 0.5625,-0.03125 0.90625,-0.03125 C 1.6875,-0.03125 2.265625,0 2.265625,0 v -0.390625 h -0.46875 v -1.34375 c 0,-0.8125 0.71875,-1.078125 1.140625,-1.078125 0.3125,0 0.4375,0.15625 0.4375,0.65625 v 1.765625 H 2.90625 V 0 C 2.921875,0 3.484375,-0.03125 3.8125,-0.03125 4.15625,-0.03125 4.71875,0 4.734375,0 v -0.390625 h -0.46875 z m 0,0"
             id="id-89dd38aa-de86-46c6-b170-4cc352976436" />
        </g>
      </g>
      <g
         fill="#000000"
         fill-opacity="1"
         id="id-fd731ab5-f661-440d-9176-67ff9545409d"
         transform="translate(-269.807,-135.768)">
        <g
           transform="translate(281.142,181.959)"
           id="g3">
          <path
             d="m 3.390625,-4.21875 c 0.046875,-0.203125 0.0625,-0.21875 0.21875,-0.234375 0.03125,0 0.265625,0 0.40625,0 0.4375,0 0.609375,0 0.78125,0.046875 0.3125,0.09375 0.328125,0.296875 0.328125,0.546875 0,0.109375 0,0.203125 -0.046875,0.5625 L 5.0625,-3.21875 c 0,0.078125 0.046875,0.109375 0.125,0.109375 0.109375,0 0.109375,-0.0625 0.125,-0.171875 L 5.5,-4.609375 c 0,-0.09375 -0.078125,-0.09375 -0.203125,-0.09375 h -4.28125 c -0.171875,0 -0.1875,0 -0.234375,0.140625 l -0.453125,1.234375 c 0,0.03125 -0.03125,0.09375 -0.03125,0.125 0,0.03125 0.015625,0.09375 0.125,0.09375 0.09375,0 0.09375,-0.03125 0.140625,-0.171875 0.40625,-1.109375 0.640625,-1.171875 1.703125,-1.171875 h 0.28125 c 0.21875,0 0.21875,0 0.21875,0.0625 0,0 0,0.046875 -0.03125,0.140625 L 1.8125,-0.578125 C 1.75,-0.328125 1.734375,-0.25 1,-0.25 c -0.25,0 -0.3125,0 -0.3125,0.15625 C 0.6875,-0.078125 0.703125,0 0.8125,0 1,0 1.21875,-0.015625 1.40625,-0.015625 1.609375,-0.015625 1.8125,-0.03125 2,-0.03125 c 0.203125,0 0.4375,0 0.640625,0.015625 C 2.828125,-0.015625 3.03125,0 3.21875,0 3.28125,0 3.375,0 3.375,-0.15625 3.375,-0.25 3.3125,-0.25 3.09375,-0.25 c -0.125,0 -0.265625,-0.015625 -0.40625,-0.015625 -0.234375,-0.015625 -0.25,-0.046875 -0.25,-0.125 0,-0.0625 0,-0.0625 0.03125,-0.171875 z m 0,0"
             id="id-a8e0ba0a-366f-492d-8a72-87221185705b" />
        </g>
      </g>
      <g
         fill="#000000"
         fill-opacity="1"
         id="id-d0d7e61a-0249-412a-8db7-2e7d812832a6"
         transform="translate(-269.807,-135.768)">
        <g
           transform="translate(290.186,186.073)"
           id="g4">
          <path
             d="m 6.84375,-3.265625 c 0.15625,0 0.34375,0 0.34375,-0.1875 C 7.1875,-3.65625 7,-3.65625 6.859375,-3.65625 h -5.96875 c -0.140625,0 -0.328125,0 -0.328125,0.203125 0,0.1875 0.1875,0.1875 0.328125,0.1875 z m 0.015625,1.9375 c 0.140625,0 0.328125,0 0.328125,-0.203125 0,-0.1875 -0.1875,-0.1875 -0.34375,-0.1875 H 0.890625 c -0.140625,0 -0.328125,0 -0.328125,0.1875 0,0.203125 0.1875,0.203125 0.328125,0.203125 z m 0,0"
             id="id-5fad2407-72a7-4b54-ab5e-385af9aafc81" />
        </g>
      </g>
      <g
         fill="#000000"
         fill-opacity="1"
         id="id-212f8d63-4abb-4a80-96b8-6308211af16e"
         transform="translate(-269.807,-135.768)">
        <g
           transform="translate(300.702,136.159)"
           id="g5">
          <path
             d="m 3.25,17.546875 h 0.6875 v -17.25 h 2.625 v -0.6875 H 3.25 Z m 0,0"
             id="id-b5a7fbcf-79f1-4c5d-a55e-41dc91547bee" />
        </g>
      </g>
      <g
         fill="#000000"
         fill-opacity="1"
         id="id-ea2d22ba-342b-4b6e-a5b3-5b6b5cf3e07f"
         transform="translate(-269.807,-135.768)">
        <g
           transform="translate(300.702,153.694)"
           id="g6">
          <path
             d="m 3.25,5.984375 h 0.6875 v -6 H 3.25 Z m 0,0"
             id="id-e6cb0224-361d-48cc-9001-31118caa6b86" />
        </g>
      </g>
      <g
         fill="#000000"
         fill-opacity="1"
         id="id-4679b09a-f382-4990-93f0-1d67a5f117b3"
         transform="translate(-269.807,-135.768)">
        <g
           transform="translate(300.702,159.671)"
           id="g7">
          <path
             d="m 3.25,5.984375 h 0.6875 v -6 H 3.25 Z m 0,0"
             id="id-cd9be6ff-70bc-4745-a28d-df2d5e1449ca" />
        </g>
      </g>
      <g
         fill="#000000"
         fill-opacity="1"
         id="id-369310b2-5b45-4ac1-9145-ac69ea239907"
         transform="translate(-269.807,-135.768)">
        <g
           transform="translate(300.702,165.649)"
           id="g8">
          <path
             d="m 3.25,5.984375 h 0.6875 v -6 H 3.25 Z m 0,0"
             id="id-8d33de6d-b2e9-4260-98e4-dfc8366bd254" />
        </g>
      </g>
      <g
         fill="#000000"
         fill-opacity="1"
         id="id-17dd9c81-476f-4f82-b617-857e96d25fa4"
         transform="translate(-269.807,-135.768)">
        <g
           transform="translate(300.702,171.627)"
           id="g9">
          <path
             d="m 3.25,5.984375 h 0.6875 v -6 H 3.25 Z m 0,0"
             id="id-58a3b0a2-4e5b-4c6e-9c1e-57c95e40dbdd" />
        </g>
      </g>
      <g
         fill="#000000"
         fill-opacity="1"
         id="id-89f231f9-b621-4512-bb31-4670aca3cd68"
         transform="translate(-269.807,-135.768)">
        <g
           transform="translate(300.702,177.604)"
           id="g10">
          <path
             d="m 3.25,5.984375 h 0.6875 v -6 H 3.25 Z m 0,0"
             id="id-8312dc9b-8935-4193-a786-ebe43ab5b7b8" />
        </g>
      </g>
      <g
         fill="#000000"
         fill-opacity="1"
         id="id-95935b47-085f-499d-b880-4436c830a06c"
         transform="translate(-269.807,-135.768)">
        <g
           transform="translate(300.702,183.582)"
           id="g11">
          <path
             d="m 3.25,5.984375 h 0.6875 v -6 H 3.25 Z m 0,0"
             id="id-5a917b7d-480b-42d9-b062-ded7abd7131b" />
        </g>
      </g>
      <g
         fill="#000000"
         fill-opacity="1"
         id="id-460a7ac9-5fd2-46f0-b903-c825ab5b8a75"
         transform="translate(-269.807,-135.768)">
        <g
           transform="translate(300.702,189.56)"
           id="g12">
          <path
             d="m 3.25,5.984375 h 0.6875 v -6 H 3.25 Z m 0,0"
             id="id-39e73771-c148-4910-872f-7e5e08c759c6" />
        </g>
      </g>
      <g
         fill="#000000"
         fill-opacity="1"
         id="id-d5710769-91f4-4d99-8b38-ad6a4b7396e2"
         transform="translate(-269.807,-135.768)">
        <g
           transform="translate(300.702,195.537)"
           id="g13">
          <path
             d="m 3.25,5.984375 h 0.6875 v -6 H 3.25 Z m 0,0"
             id="id-1dbfb85d-293f-47a6-b010-5f128eda4fa3" />
        </g>
      </g>
      <g
         fill="#000000"
         fill-opacity="1"
         id="id-2e44b996-84a1-4eab-ae88-6b24adcea624"
         transform="translate(-269.807,-135.768)">
        <g
           transform="translate(300.702,201.515)"
           id="g14">
          <path
             d="m 3.25,5.984375 h 0.6875 v -6 H 3.25 Z m 0,0"
             id="id-3d8e9f13-5c84-4db1-9328-2556a40811b2" />
        </g>
      </g>
      <g
         fill="#000000"
         fill-opacity="1"
         id="id-3483d84a-9fa1-4f05-8398-e3fd081e9951"
         transform="translate(-269.807,-135.768)">
        <g
           transform="translate(300.702,207.493)"
           id="g15">
          <path
             d="m 3.25,5.984375 h 0.6875 v -6 H 3.25 Z m 0,0"
             id="id-64bddbff-5034-4605-b010-ab83be5df2c1" />
        </g>
      </g>
      <g
         fill="#000000"
         fill-opacity="1"
         id="id-eff3219f-3af9-4a5b-8ec3-4992592f57b6"
         transform="translate(-269.807,-135.768)">
        <g
           transform="translate(300.702,213.869)"
           id="g16">
          <path
             d="m 3.25,17.53125 h 3.3125 v -0.6875 h -2.625 v -17.25 H 3.25 Z m 0,0"
             id="id-93cd6076-2396-49f3-b239-77b50210fc94" />
        </g>
      </g>
      <g
         fill="#000000"
         fill-opacity="1"
         id="id-094080b3-adc3-427c-904b-20f87c802b9a"
         transform="translate(-269.807,-135.768)">
        <g
           transform="translate(313.847,144.13)"
           id="g17">
          <path
             d="m 2.046875,-5.875 c 0,-0.59375 -0.234375,-1.046875 -0.65625,-1.046875 -0.359375,0 -0.53125,0.265625 -0.53125,0.53125 0,0.265625 0.171875,0.53125 0.53125,0.53125 0.1875,0 0.328125,-0.109375 0.390625,-0.15625 0.015625,-0.03125 0.015625,-0.03125 0.03125,-0.03125 0.015625,0 0.015625,0.140625 0.015625,0.171875 0,0.328125 -0.0625,1.046875 -0.6875,1.65625 -0.125,0.125 -0.125,0.140625 -0.125,0.171875 0,0.0625 0.046875,0.109375 0.09375,0.109375 0.109375,0 0.9375,-0.75 0.9375,-1.9375 z m 0,0"
             id="id-9734d55e-8f5c-4b51-bd36-62fecc1eec4c" />
        </g>
        <g
           transform="translate(316.615,144.13)"
           id="g18">
          <path
             d="M 2.40625,-6.59375 C 2.3125,-6.8125 2.28125,-6.8125 2.046875,-6.8125 H 0.375 V -6.5 h 0.234375 c 0.765625,0 0.78125,0.109375 0.78125,0.46875 v 4.984375 c 0,0.265625 0,0.734375 -1.015625,0.734375 V 0 c 0.34375,-0.015625 0.828125,-0.03125 1.15625,-0.03125 0.328125,0 0.828125,0.015625 1.171875,0.03125 v -0.3125 c -1.03125,0 -1.03125,-0.46875 -1.03125,-0.734375 v -5.375 H 1.6875 L 4.09375,-0.21875 C 4.140625,-0.09375 4.1875,0 4.28125,0 4.390625,0 4.421875,-0.078125 4.46875,-0.1875 L 6.921875,-6.5 v 5.71875 c 0,0.359375 -0.015625,0.46875 -0.78125,0.46875 H 5.90625 V 0 c 0.359375,-0.03125 1.046875,-0.03125 1.4375,-0.03125 0.375,0 1.046875,0 1.421875,0.03125 v -0.3125 h -0.25 c -0.765625,0 -0.78125,-0.109375 -0.78125,-0.46875 v -5.25 C 7.734375,-6.390625 7.75,-6.5 8.515625,-6.5 h 0.25 v -0.3125 h -1.6875 C 6.8125,-6.8125 6.8125,-6.796875 6.75,-6.625 L 4.5625,-1 Z m 0,0"
             id="id-e4e5fe86-6af8-43ba-befd-0c9982a38605" />
        </g>
        <g
           transform="translate(325.747,144.13)"
           id="g19">
          <path
             d="m 2.046875,-5.875 c 0,-0.59375 -0.234375,-1.046875 -0.65625,-1.046875 -0.359375,0 -0.53125,0.265625 -0.53125,0.53125 0,0.265625 0.171875,0.53125 0.53125,0.53125 0.1875,0 0.328125,-0.109375 0.390625,-0.15625 0.015625,-0.03125 0.015625,-0.03125 0.03125,-0.03125 0.015625,0 0.015625,0.140625 0.015625,0.171875 0,0.328125 -0.0625,1.046875 -0.6875,1.65625 -0.125,0.125 -0.125,0.140625 -0.125,0.171875 0,0.0625 0.046875,0.109375 0.09375,0.109375 0.109375,0 0.9375,-0.75 0.9375,-1.9375 z m 0,0"
             id="id-ed411aa9-0c33-47a6-a9f3-b88215e7e6c8" />
        </g>
      </g>
      <g
         fill="#000000"
         fill-opacity="1"
         id="id-75060f2b-41d4-4903-ae97-499bfdd79e25"
         transform="translate(-269.807,-135.768)">
        <g
           transform="translate(309.834,156.085)"
           id="g20">
          <path
             d="m 4.578125,-3.1875 c 0,-0.796875 -0.046875,-1.59375 -0.390625,-2.328125 -0.453125,-0.96875 -1.28125,-1.125 -1.6875,-1.125 -0.609375,0 -1.328125,0.265625 -1.75,1.1875 -0.3125,0.6875 -0.359375,1.46875 -0.359375,2.265625 0,0.75 0.03125,1.640625 0.453125,2.40625 0.421875,0.796875 1.15625,1 1.640625,1 0.53125,0 1.296875,-0.203125 1.734375,-1.15625 0.3125,-0.6875 0.359375,-1.46875 0.359375,-2.25 z M 2.484375,0 C 2.09375,0 1.5,-0.25 1.328125,-1.203125 1.21875,-1.796875 1.21875,-2.71875 1.21875,-3.3125 c 0,-0.640625 0,-1.296875 0.078125,-1.828125 0.1875,-1.1875 0.9375,-1.28125 1.1875,-1.28125 0.328125,0 0.984375,0.1875 1.171875,1.171875 0.109375,0.5625 0.109375,1.3125 0.109375,1.9375 0,0.75 0,1.421875 -0.109375,2.0625 C 3.5,-0.296875 2.9375,0 2.484375,0 Z m 0,0"
             id="id-9f2c052c-7a28-4022-ba87-369871dc2a74" />
        </g>
      </g>
      <g
         fill="#000000"
         fill-opacity="1"
         id="id-36e047eb-3407-4fa8-a688-3248428386f6"
         transform="translate(-269.807,-135.768)">
        <g
           transform="translate(314.816,156.085)"
           id="g21">
          <path
             d="m 1.90625,-0.53125 c 0,-0.28125 -0.234375,-0.53125 -0.515625,-0.53125 -0.296875,0 -0.53125,0.25 -0.53125,0.53125 C 0.859375,-0.234375 1.09375,0 1.390625,0 1.671875,0 1.90625,-0.234375 1.90625,-0.53125 Z m 0,0"
             id="id-43ad3176-e320-4080-a4a2-64027b955f5d" />
        </g>
      </g>
      <g
         fill="#000000"
         fill-opacity="1"
         id="id-0d719b1d-9555-494c-841c-9a6e6b100f9a"
         transform="translate(-269.807,-135.768)">
        <g
           transform="translate(317.583,156.085)"
           id="g22">
          <path
             d="m 2.9375,-1.640625 v 0.859375 c 0,0.359375 -0.03125,0.46875 -0.765625,0.46875 H 1.96875 V 0 C 2.375,-0.03125 2.890625,-0.03125 3.3125,-0.03125 c 0.421875,0 0.9375,0 1.359375,0.03125 v -0.3125 h -0.21875 c -0.734375,0 -0.75,-0.109375 -0.75,-0.46875 V -1.640625 H 4.6875 v -0.3125 H 3.703125 v -4.53125 c 0,-0.203125 0,-0.265625 -0.171875,-0.265625 -0.078125,0 -0.109375,0 -0.1875,0.125 l -3.0625,4.671875 v 0.3125 z m 0.046875,-0.3125 H 0.5625 l 2.421875,-3.71875 z m 0,0"
             id="id-2ae421b1-d849-4ec4-b5f4-787f8fb324e0" />
        </g>
        <g
           transform="translate(322.564,156.085)"
           id="g23">
          <path
             d="m 4.46875,-2 c 0,-1.1875 -0.8125,-2.1875 -1.890625,-2.1875 -0.46875,0 -0.90625,0.15625 -1.265625,0.515625 V -5.625 c 0.203125,0.0625 0.53125,0.125 0.84375,0.125 1.234375,0 1.9375,-0.90625 1.9375,-1.03125 0,-0.0625 -0.03125,-0.109375 -0.109375,-0.109375 0,0 -0.03125,0 -0.078125,0.03125 C 3.703125,-6.515625 3.21875,-6.3125 2.546875,-6.3125 2.15625,-6.3125 1.6875,-6.390625 1.21875,-6.59375 1.140625,-6.625 1.125,-6.625 1.109375,-6.625 1,-6.625 1,-6.546875 1,-6.390625 V -3.4375 c 0,0.171875 0,0.25 0.140625,0.25 0.078125,0 0.09375,-0.015625 0.140625,-0.078125 C 1.390625,-3.421875 1.75,-3.96875 2.5625,-3.96875 c 0.515625,0 0.765625,0.453125 0.84375,0.640625 0.15625,0.375 0.1875,0.75 0.1875,1.25 0,0.359375 0,0.953125 -0.25,1.375 C 3.109375,-0.3125 2.734375,-0.0625 2.28125,-0.0625 c -0.71875,0 -1.296875,-0.53125 -1.46875,-1.109375 0.03125,0 0.0625,0.015625 0.171875,0.015625 0.328125,0 0.5,-0.25 0.5,-0.484375 0,-0.25 -0.171875,-0.5 -0.5,-0.5 C 0.84375,-2.140625 0.5,-2.0625 0.5,-1.609375 0.5,-0.75 1.1875,0.21875 2.296875,0.21875 3.453125,0.21875 4.46875,-0.734375 4.46875,-2 Z m 0,0"
             id="id-8157a85d-c9e8-46af-b72a-aa0ecc1edd14" />
        </g>
        <g
           transform="translate(327.546,156.085)"
           id="g24">
          <path
             d="m 4.46875,-2 c 0,-1.1875 -0.8125,-2.1875 -1.890625,-2.1875 -0.46875,0 -0.90625,0.15625 -1.265625,0.515625 V -5.625 c 0.203125,0.0625 0.53125,0.125 0.84375,0.125 1.234375,0 1.9375,-0.90625 1.9375,-1.03125 0,-0.0625 -0.03125,-0.109375 -0.109375,-0.109375 0,0 -0.03125,0 -0.078125,0.03125 C 3.703125,-6.515625 3.21875,-6.3125 2.546875,-6.3125 2.15625,-6.3125 1.6875,-6.390625 1.21875,-6.59375 1.140625,-6.625 1.125,-6.625 1.109375,-6.625 1,-6.625 1,-6.546875 1,-6.390625 V -3.4375 c 0,0.171875 0,0.25 0.140625,0.25 0.078125,0 0.09375,-0.015625 0.140625,-0.078125 C 1.390625,-3.421875 1.75,-3.96875 2.5625,-3.96875 c 0.515625,0 0.765625,0.453125 0.84375,0.640625 0.15625,0.375 0.1875,0.75 0.1875,1.25 0,0.359375 0,0.953125 -0.25,1.375 C 3.109375,-0.3125 2.734375,-0.0625 2.28125,-0.0625 c -0.71875,0 -1.296875,-0.53125 -1.46875,-1.109375 0.03125,0 0.0625,0.015625 0.171875,0.015625 0.328125,0 0.5,-0.25 0.5,-0.484375 0,-0.25 -0.171875,-0.5 -0.5,-0.5 C 0.84375,-2.140625 0.5,-2.0625 0.5,-1.609375 0.5,-0.75 1.1875,0.21875 2.296875,0.21875 3.453125,0.21875 4.46875,-0.734375 4.46875,-2 Z m 0,0"
             id="id-38a20f1b-6e1a-44a7-b169-7e01e0b3ee94" />
        </g>
      </g>
      <g
         fill="#000000"
         fill-opacity="1"
         id="id-79196bde-22b5-43c4-9959-4a531baabfb1"
         transform="translate(-269.807,-135.768)">
        <g
           transform="translate(309.834,168.04)"
           id="g25">
          <path
             d="m 4.578125,-3.1875 c 0,-0.796875 -0.046875,-1.59375 -0.390625,-2.328125 -0.453125,-0.96875 -1.28125,-1.125 -1.6875,-1.125 -0.609375,0 -1.328125,0.265625 -1.75,1.1875 -0.3125,0.6875 -0.359375,1.46875 -0.359375,2.265625 0,0.75 0.03125,1.640625 0.453125,2.40625 0.421875,0.796875 1.15625,1 1.640625,1 0.53125,0 1.296875,-0.203125 1.734375,-1.15625 0.3125,-0.6875 0.359375,-1.46875 0.359375,-2.25 z M 2.484375,0 C 2.09375,0 1.5,-0.25 1.328125,-1.203125 1.21875,-1.796875 1.21875,-2.71875 1.21875,-3.3125 c 0,-0.640625 0,-1.296875 0.078125,-1.828125 0.1875,-1.1875 0.9375,-1.28125 1.1875,-1.28125 0.328125,0 0.984375,0.1875 1.171875,1.171875 0.109375,0.5625 0.109375,1.3125 0.109375,1.9375 0,0.75 0,1.421875 -0.109375,2.0625 C 3.5,-0.296875 2.9375,0 2.484375,0 Z m 0,0"
             id="id-70dae2cb-e54f-4f5c-a151-88d32c4ed217" />
        </g>
      </g>
      <g
         fill="#000000"
         fill-opacity="1"
         id="id-caf812c0-eba7-4e4b-956b-8e47ac67fed5"
         transform="translate(-269.807,-135.768)">
        <g
           transform="translate(314.816,168.04)"
           id="g26">
          <path
             d="m 1.90625,-0.53125 c 0,-0.28125 -0.234375,-0.53125 -0.515625,-0.53125 -0.296875,0 -0.53125,0.25 -0.53125,0.53125 C 0.859375,-0.234375 1.09375,0 1.390625,0 1.671875,0 1.90625,-0.234375 1.90625,-0.53125 Z m 0,0"
             id="id-01f0e80d-46da-4eb8-8584-62cb537624f4" />
        </g>
      </g>
      <g
         fill="#000000"
         fill-opacity="1"
         id="id-39395a27-bafb-4650-a4bc-8201a82ee9a4"
         transform="translate(-269.807,-135.768)">
        <g
           transform="translate(317.583,168.04)"
           id="g27">
          <path
             d="m 2.890625,-3.515625 c 0.8125,-0.265625 1.390625,-0.953125 1.390625,-1.75 0,-0.8125 -0.875,-1.375 -1.828125,-1.375 -1,0 -1.765625,0.59375 -1.765625,1.359375 0,0.328125 0.21875,0.515625 0.515625,0.515625 0.296875,0 0.5,-0.21875 0.5,-0.515625 0,-0.484375 -0.46875,-0.484375 -0.609375,-0.484375 0.296875,-0.5 0.953125,-0.625 1.3125,-0.625 0.421875,0 0.96875,0.21875 0.96875,1.109375 0,0.125 -0.03125,0.703125 -0.28125,1.140625 C 2.796875,-3.65625 2.453125,-3.625 2.203125,-3.625 2.125,-3.609375 1.890625,-3.59375 1.8125,-3.59375 c -0.078125,0.015625 -0.140625,0.03125 -0.140625,0.125 0,0.109375 0.0625,0.109375 0.234375,0.109375 h 0.4375 c 0.8125,0 1.1875,0.671875 1.1875,1.65625 0,1.359375 -0.6875,1.640625 -1.125,1.640625 -0.4375,0 -1.1875,-0.171875 -1.53125,-0.75 0.34375,0.046875 0.65625,-0.171875 0.65625,-0.546875 0,-0.359375 -0.265625,-0.5625 -0.546875,-0.5625 -0.25,0 -0.5625,0.140625 -0.5625,0.578125 0,0.90625 0.921875,1.5625 2.015625,1.5625 1.21875,0 2.125,-0.90625 2.125,-1.921875 0,-0.8125 -0.640625,-1.59375 -1.671875,-1.8125 z m 0,0"
             id="id-247a0eec-73c1-405c-b169-24505772f2c0" />
        </g>
        <g
           transform="translate(322.564,168.04)"
           id="g28">
          <path
             d="m 1.3125,-3.265625 v -0.25 c 0,-2.515625 1.234375,-2.875 1.75,-2.875 0.234375,0 0.65625,0.0625 0.875,0.40625 -0.15625,0 -0.546875,0 -0.546875,0.4375 0,0.3125 0.234375,0.46875 0.453125,0.46875 0.15625,0 0.46875,-0.09375 0.46875,-0.484375 0,-0.59375 -0.4375,-1.078125 -1.265625,-1.078125 -1.28125,0 -2.625,1.28125 -2.625,3.484375 0,2.671875 1.15625,3.375 2.078125,3.375 1.109375,0 2.0625,-0.9375 2.0625,-2.25 0,-1.265625 -0.890625,-2.21875 -2,-2.21875 -0.671875,0 -1.046875,0.5 -1.25,0.984375 z M 2.5,-0.0625 c -0.625,0 -0.921875,-0.59375 -0.984375,-0.75 -0.1875,-0.46875 -0.1875,-1.265625 -0.1875,-1.4375 0,-0.78125 0.328125,-1.78125 1.21875,-1.78125 0.171875,0 0.625,0 0.9375,0.625 0.171875,0.359375 0.171875,0.875 0.171875,1.359375 0,0.484375 0,0.984375 -0.171875,1.34375 C 3.1875,-0.109375 2.734375,-0.0625 2.5,-0.0625 Z m 0,0"
             id="id-0a14e9f0-9af3-4945-b4e2-d46545ab0c4b" />
        </g>
        <g
           transform="translate(327.546,168.04)"
           id="g29">
          <path
             d="m 4.46875,-2 c 0,-1.1875 -0.8125,-2.1875 -1.890625,-2.1875 -0.46875,0 -0.90625,0.15625 -1.265625,0.515625 V -5.625 c 0.203125,0.0625 0.53125,0.125 0.84375,0.125 1.234375,0 1.9375,-0.90625 1.9375,-1.03125 0,-0.0625 -0.03125,-0.109375 -0.109375,-0.109375 0,0 -0.03125,0 -0.078125,0.03125 C 3.703125,-6.515625 3.21875,-6.3125 2.546875,-6.3125 2.15625,-6.3125 1.6875,-6.390625 1.21875,-6.59375 1.140625,-6.625 1.125,-6.625 1.109375,-6.625 1,-6.625 1,-6.546875 1,-6.390625 V -3.4375 c 0,0.171875 0,0.25 0.140625,0.25 0.078125,0 0.09375,-0.015625 0.140625,-0.078125 C 1.390625,-3.421875 1.75,-3.96875 2.5625,-3.96875 c 0.515625,0 0.765625,0.453125 0.84375,0.640625 0.15625,0.375 0.1875,0.75 0.1875,1.25 0,0.359375 0,0.953125 -0.25,1.375 C 3.109375,-0.3125 2.734375,-0.0625 2.28125,-0.0625 c -0.71875,0 -1.296875,-0.53125 -1.46875,-1.109375 0.03125,0 0.0625,0.015625 0.171875,0.015625 0.328125,0 0.5,-0.25 0.5,-0.484375 0,-0.25 -0.171875,-0.5 -0.5,-0.5 C 0.84375,-2.140625 0.5,-2.0625 0.5,-1.609375 0.5,-0.75 1.1875,0.21875 2.296875,0.21875 3.453125,0.21875 4.46875,-0.734375 4.46875,-2 Z m 0,0"
             id="id-94da15d0-846a-435b-9d34-a1e33a08c183" />
        </g>
      </g>
      <g
         fill="#000000"
         fill-opacity="1"
         id="id-9285f3e5-4047-4bca-b5cf-718383b39ac7"
         transform="translate(-269.807,-135.768)">
        <g
           transform="translate(309.834,179.995)"
           id="g30">
          <path
             d="m 4.578125,-3.1875 c 0,-0.796875 -0.046875,-1.59375 -0.390625,-2.328125 -0.453125,-0.96875 -1.28125,-1.125 -1.6875,-1.125 -0.609375,0 -1.328125,0.265625 -1.75,1.1875 -0.3125,0.6875 -0.359375,1.46875 -0.359375,2.265625 0,0.75 0.03125,1.640625 0.453125,2.40625 0.421875,0.796875 1.15625,1 1.640625,1 0.53125,0 1.296875,-0.203125 1.734375,-1.15625 0.3125,-0.6875 0.359375,-1.46875 0.359375,-2.25 z M 2.484375,0 C 2.09375,0 1.5,-0.25 1.328125,-1.203125 1.21875,-1.796875 1.21875,-2.71875 1.21875,-3.3125 c 0,-0.640625 0,-1.296875 0.078125,-1.828125 0.1875,-1.1875 0.9375,-1.28125 1.1875,-1.28125 0.328125,0 0.984375,0.1875 1.171875,1.171875 0.109375,0.5625 0.109375,1.3125 0.109375,1.9375 0,0.75 0,1.421875 -0.109375,2.0625 C 3.5,-0.296875 2.9375,0 2.484375,0 Z m 0,0"
             id="id-c468e54a-ea3d-48d5-953e-cbb50b1a579d" />
        </g>
      </g>
      <g
         fill="#000000"
         fill-opacity="1"
         id="id-6cd4534d-a9a7-41b0-8019-d6a283a37942"
         transform="translate(-269.807,-135.768)">
        <g
           transform="translate(314.816,179.995)"
           id="g31">
          <path
             d="m 1.90625,-0.53125 c 0,-0.28125 -0.234375,-0.53125 -0.515625,-0.53125 -0.296875,0 -0.53125,0.25 -0.53125,0.53125 C 0.859375,-0.234375 1.09375,0 1.390625,0 1.671875,0 1.90625,-0.234375 1.90625,-0.53125 Z m 0,0"
             id="id-a6c2ea3c-8490-4bf8-b71f-564fa3763c8c" />
        </g>
      </g>
      <g
         fill="#000000"
         fill-opacity="1"
         id="id-23c065e5-7981-4f7b-937c-4fd3bd27bc64"
         transform="translate(-269.807,-135.768)">
        <g
           transform="translate(317.583,179.995)"
           id="g32">
          <path
             d="m 4.578125,-3.1875 c 0,-0.796875 -0.046875,-1.59375 -0.390625,-2.328125 -0.453125,-0.96875 -1.28125,-1.125 -1.6875,-1.125 -0.609375,0 -1.328125,0.265625 -1.75,1.1875 -0.3125,0.6875 -0.359375,1.46875 -0.359375,2.265625 0,0.75 0.03125,1.640625 0.453125,2.40625 0.421875,0.796875 1.15625,1 1.640625,1 0.53125,0 1.296875,-0.203125 1.734375,-1.15625 0.3125,-0.6875 0.359375,-1.46875 0.359375,-2.25 z M 2.484375,0 C 2.09375,0 1.5,-0.25 1.328125,-1.203125 1.21875,-1.796875 1.21875,-2.71875 1.21875,-3.3125 c 0,-0.640625 0,-1.296875 0.078125,-1.828125 0.1875,-1.1875 0.9375,-1.28125 1.1875,-1.28125 0.328125,0 0.984375,0.1875 1.171875,1.171875 0.109375,0.5625 0.109375,1.3125 0.109375,1.9375 0,0.75 0,1.421875 -0.109375,2.0625 C 3.5,-0.296875 2.9375,0 2.484375,0 Z m 0,0"
             id="id-a4d96570-f1cb-4680-ae42-e6ae3f9df299" />
        </g>
        <g
           transform="translate(322.564,179.995)"
           id="g33">
          <path
             d="m 3.65625,-3.171875 v 0.328125 c 0,2.328125 -1.03125,2.78125 -1.609375,2.78125 -0.171875,0 -0.71875,-0.015625 -0.984375,-0.359375 0.4375,0 0.515625,-0.28125 0.515625,-0.453125 0,-0.3125 -0.234375,-0.453125 -0.453125,-0.453125 -0.15625,0 -0.453125,0.078125 -0.453125,0.46875 0,0.671875 0.53125,1.078125 1.375,1.078125 1.296875,0 2.515625,-1.359375 2.515625,-3.5 0,-2.6875 -1.15625,-3.359375 -2.046875,-3.359375 -0.546875,0 -1.03125,0.1875 -1.453125,0.625 -0.421875,0.453125 -0.640625,0.875 -0.640625,1.625 0,1.234375 0.875,2.21875 1.984375,2.21875 0.609375,0 1.015625,-0.421875 1.25,-1 z M 2.421875,-2.40625 c -0.15625,0 -0.625,0 -0.921875,-0.625 -0.1875,-0.375 -0.1875,-0.859375 -0.1875,-1.359375 0,-0.53125 0,-1 0.21875,-1.375 0.265625,-0.5 0.640625,-0.625 0.984375,-0.625 0.46875,0 0.796875,0.34375 0.96875,0.78125 0.109375,0.328125 0.15625,0.953125 0.15625,1.40625 0,0.828125 -0.34375,1.796875 -1.21875,1.796875 z m 0,0"
             id="id-76b1e801-4324-4c6e-a23f-1442d1555718" />
        </g>
        <g
           transform="translate(327.546,179.995)"
           id="g34">
          <path
             d="m 4.46875,-2 c 0,-1.1875 -0.8125,-2.1875 -1.890625,-2.1875 -0.46875,0 -0.90625,0.15625 -1.265625,0.515625 V -5.625 c 0.203125,0.0625 0.53125,0.125 0.84375,0.125 1.234375,0 1.9375,-0.90625 1.9375,-1.03125 0,-0.0625 -0.03125,-0.109375 -0.109375,-0.109375 0,0 -0.03125,0 -0.078125,0.03125 C 3.703125,-6.515625 3.21875,-6.3125 2.546875,-6.3125 2.15625,-6.3125 1.6875,-6.390625 1.21875,-6.59375 1.140625,-6.625 1.125,-6.625 1.109375,-6.625 1,-6.625 1,-6.546875 1,-6.390625 V -3.4375 c 0,0.171875 0,0.25 0.140625,0.25 0.078125,0 0.09375,-0.015625 0.140625,-0.078125 C 1.390625,-3.421875 1.75,-3.96875 2.5625,-3.96875 c 0.515625,0 0.765625,0.453125 0.84375,0.640625 0.15625,0.375 0.1875,0.75 0.1875,1.25 0,0.359375 0,0.953125 -0.25,1.375 C 3.109375,-0.3125 2.734375,-0.0625 2.28125,-0.0625 c -0.71875,0 -1.296875,-0.53125 -1.46875,-1.109375 0.03125,0 0.0625,0.015625 0.171875,0.015625 0.328125,0 0.5,-0.25 0.5,-0.484375 0,-0.25 -0.171875,-0.5 -0.5,-0.5 C 0.84375,-2.140625 0.5,-2.0625 0.5,-1.609375 0.5,-0.75 1.1875,0.21875 2.296875,0.21875 3.453125,0.21875 4.46875,-0.734375 4.46875,-2 Z m 0,0"
             id="id-4f682beb-f6aa-4bbe-bbbd-34511d72e8d4" />
        </g>
      </g>
      <g
         fill="#000000"
         fill-opacity="1"
         id="id-feb7c0ea-91ab-4b96-b857-aa1ea19204b9"
         transform="translate(-269.807,-135.768)">
        <g
           transform="translate(309.834,191.951)"
           id="g35">
          <path
             d="m 4.578125,-3.1875 c 0,-0.796875 -0.046875,-1.59375 -0.390625,-2.328125 -0.453125,-0.96875 -1.28125,-1.125 -1.6875,-1.125 -0.609375,0 -1.328125,0.265625 -1.75,1.1875 -0.3125,0.6875 -0.359375,1.46875 -0.359375,2.265625 0,0.75 0.03125,1.640625 0.453125,2.40625 0.421875,0.796875 1.15625,1 1.640625,1 0.53125,0 1.296875,-0.203125 1.734375,-1.15625 0.3125,-0.6875 0.359375,-1.46875 0.359375,-2.25 z M 2.484375,0 C 2.09375,0 1.5,-0.25 1.328125,-1.203125 1.21875,-1.796875 1.21875,-2.71875 1.21875,-3.3125 c 0,-0.640625 0,-1.296875 0.078125,-1.828125 0.1875,-1.1875 0.9375,-1.28125 1.1875,-1.28125 0.328125,0 0.984375,0.1875 1.171875,1.171875 0.109375,0.5625 0.109375,1.3125 0.109375,1.9375 0,0.75 0,1.421875 -0.109375,2.0625 C 3.5,-0.296875 2.9375,0 2.484375,0 Z m 0,0"
             id="id-f49a7441-a7e6-4975-83f4-656b68c25a55" />
        </g>
      </g>
      <g
         fill="#000000"
         fill-opacity="1"
         id="id-a8991816-9ee0-4440-a151-c726baafcbbc"
         transform="translate(-269.807,-135.768)">
        <g
           transform="translate(314.816,191.951)"
           id="g36">
          <path
             d="m 1.90625,-0.53125 c 0,-0.28125 -0.234375,-0.53125 -0.515625,-0.53125 -0.296875,0 -0.53125,0.25 -0.53125,0.53125 C 0.859375,-0.234375 1.09375,0 1.390625,0 1.671875,0 1.90625,-0.234375 1.90625,-0.53125 Z m 0,0"
             id="id-e971ca6d-fafe-4e8c-8466-42e2294fd5cc" />
        </g>
      </g>
      <g
         fill="#000000"
         fill-opacity="1"
         id="id-f96c21bd-2821-41f3-b80e-d48dc123de3f"
         transform="translate(-269.807,-135.768)">
        <g
           transform="translate(317.583,191.951)"
           id="g37">
          <path
             d="m 4.46875,-2 c 0,-1.1875 -0.8125,-2.1875 -1.890625,-2.1875 -0.46875,0 -0.90625,0.15625 -1.265625,0.515625 V -5.625 c 0.203125,0.0625 0.53125,0.125 0.84375,0.125 1.234375,0 1.9375,-0.90625 1.9375,-1.03125 0,-0.0625 -0.03125,-0.109375 -0.109375,-0.109375 0,0 -0.03125,0 -0.078125,0.03125 C 3.703125,-6.515625 3.21875,-6.3125 2.546875,-6.3125 2.15625,-6.3125 1.6875,-6.390625 1.21875,-6.59375 1.140625,-6.625 1.125,-6.625 1.109375,-6.625 1,-6.625 1,-6.546875 1,-6.390625 V -3.4375 c 0,0.171875 0,0.25 0.140625,0.25 0.078125,0 0.09375,-0.015625 0.140625,-0.078125 C 1.390625,-3.421875 1.75,-3.96875 2.5625,-3.96875 c 0.515625,0 0.765625,0.453125 0.84375,0.640625 0.15625,0.375 0.1875,0.75 0.1875,1.25 0,0.359375 0,0.953125 -0.25,1.375 C 3.109375,-0.3125 2.734375,-0.0625 2.28125,-0.0625 c -0.71875,0 -1.296875,-0.53125 -1.46875,-1.109375 0.03125,0 0.0625,0.015625 0.171875,0.015625 0.328125,0 0.5,-0.25 0.5,-0.484375 0,-0.25 -0.171875,-0.5 -0.5,-0.5 C 0.84375,-2.140625 0.5,-2.0625 0.5,-1.609375 0.5,-0.75 1.1875,0.21875 2.296875,0.21875 3.453125,0.21875 4.46875,-0.734375 4.46875,-2 Z m 0,0"
             id="id-050309da-6dee-4376-b055-0d0dceeec535" />
        </g>
        <g
           transform="translate(322.564,191.951)"
           id="g38">
          <path
             d="m 2.9375,-6.375 c 0,-0.25 0,-0.265625 -0.234375,-0.265625 C 2.078125,-6 1.203125,-6 0.890625,-6 v 0.3125 c 0.203125,0 0.78125,0 1.296875,-0.265625 v 5.171875 c 0,0.359375 -0.03125,0.46875 -0.921875,0.46875 h -0.3125 V 0 c 0.34375,-0.03125 1.203125,-0.03125 1.609375,-0.03125 0.390625,0 1.265625,0 1.609375,0.03125 v -0.3125 h -0.3125 c -0.90625,0 -0.921875,-0.109375 -0.921875,-0.46875 z m 0,0"
             id="id-a3635920-5212-4793-b41f-afe0352677c5" />
        </g>
        <g
           transform="translate(327.546,191.951)"
           id="g39">
          <path
             d="m 2.9375,-1.640625 v 0.859375 c 0,0.359375 -0.03125,0.46875 -0.765625,0.46875 H 1.96875 V 0 C 2.375,-0.03125 2.890625,-0.03125 3.3125,-0.03125 c 0.421875,0 0.9375,0 1.359375,0.03125 v -0.3125 h -0.21875 c -0.734375,0 -0.75,-0.109375 -0.75,-0.46875 V -1.640625 H 4.6875 v -0.3125 H 3.703125 v -4.53125 c 0,-0.203125 0,-0.265625 -0.171875,-0.265625 -0.078125,0 -0.109375,0 -0.1875,0.125 l -3.0625,4.671875 v 0.3125 z m 0.046875,-0.3125 H 0.5625 l 2.421875,-3.71875 z m 0,0"
             id="id-80193a9a-c866-49c9-9899-82ac888b93e6" />
        </g>
      </g>
      <g
         fill="#000000"
         fill-opacity="1"
         id="id-0abb7693-d139-4d8e-9a71-395ebf251e64"
         transform="translate(-269.807,-135.768)">
        <g
           transform="translate(307.344,203.906)"
           id="g40">
          <path
             d="m 4.578125,-3.1875 c 0,-0.796875 -0.046875,-1.59375 -0.390625,-2.328125 -0.453125,-0.96875 -1.28125,-1.125 -1.6875,-1.125 -0.609375,0 -1.328125,0.265625 -1.75,1.1875 -0.3125,0.6875 -0.359375,1.46875 -0.359375,2.265625 0,0.75 0.03125,1.640625 0.453125,2.40625 0.421875,0.796875 1.15625,1 1.640625,1 0.53125,0 1.296875,-0.203125 1.734375,-1.15625 0.3125,-0.6875 0.359375,-1.46875 0.359375,-2.25 z M 2.484375,0 C 2.09375,0 1.5,-0.25 1.328125,-1.203125 1.21875,-1.796875 1.21875,-2.71875 1.21875,-3.3125 c 0,-0.640625 0,-1.296875 0.078125,-1.828125 0.1875,-1.1875 0.9375,-1.28125 1.1875,-1.28125 0.328125,0 0.984375,0.1875 1.171875,1.171875 0.109375,0.5625 0.109375,1.3125 0.109375,1.9375 0,0.75 0,1.421875 -0.109375,2.0625 C 3.5,-0.296875 2.9375,0 2.484375,0 Z m 0,0"
             id="id-494756db-449a-4c60-92bb-fa762d333bc5" />
        </g>
      </g>
      <g
         fill="#000000"
         fill-opacity="1"
         id="id-8f50b818-b53b-4760-a406-019e29eee017"
         transform="translate(-269.807,-135.768)">
        <g
           transform="translate(312.325,203.906)"
           id="g41">
          <path
             d="m 1.90625,-0.53125 c 0,-0.28125 -0.234375,-0.53125 -0.515625,-0.53125 -0.296875,0 -0.53125,0.25 -0.53125,0.53125 C 0.859375,-0.234375 1.09375,0 1.390625,0 1.671875,0 1.90625,-0.234375 1.90625,-0.53125 Z m 0,0"
             id="id-a1e989cc-c5c2-4fa9-b037-cefdd173ca39" />
        </g>
      </g>
      <g
         fill="#000000"
         fill-opacity="1"
         id="id-c54bf8fa-8126-4c63-9562-7f3385427969"
         transform="translate(-269.807,-135.768)">
        <g
           transform="translate(315.092,203.906)"
           id="g42">
          <path
             d="m 1.265625,-0.765625 1.0625,-1.03125 c 1.546875,-1.375 2.140625,-1.90625 2.140625,-2.90625 0,-1.140625 -0.890625,-1.9375 -2.109375,-1.9375 -1.125,0 -1.859375,0.921875 -1.859375,1.8125 0,0.546875 0.5,0.546875 0.53125,0.546875 0.171875,0 0.515625,-0.109375 0.515625,-0.53125 0,-0.25 -0.1875,-0.515625 -0.53125,-0.515625 -0.078125,0 -0.09375,0 -0.125,0.015625 0.21875,-0.65625 0.765625,-1.015625 1.34375,-1.015625 0.90625,0 1.328125,0.8125 1.328125,1.625 C 3.5625,-3.90625 3.078125,-3.125 2.515625,-2.5 l -1.90625,2.125 C 0.5,-0.265625 0.5,-0.234375 0.5,0 H 4.203125 L 4.46875,-1.734375 H 4.234375 C 4.171875,-1.4375 4.109375,-1 4,-0.84375 3.9375,-0.765625 3.28125,-0.765625 3.0625,-0.765625 Z m 0,0"
             id="id-478462c2-6249-4ff9-bd69-ab8c891a25e9" />
        </g>
        <g
           transform="translate(320.073,203.906)"
           id="g43">
          <path
             d="m 1.265625,-0.765625 1.0625,-1.03125 c 1.546875,-1.375 2.140625,-1.90625 2.140625,-2.90625 0,-1.140625 -0.890625,-1.9375 -2.109375,-1.9375 -1.125,0 -1.859375,0.921875 -1.859375,1.8125 0,0.546875 0.5,0.546875 0.53125,0.546875 0.171875,0 0.515625,-0.109375 0.515625,-0.53125 0,-0.25 -0.1875,-0.515625 -0.53125,-0.515625 -0.078125,0 -0.09375,0 -0.125,0.015625 0.21875,-0.65625 0.765625,-1.015625 1.34375,-1.015625 0.90625,0 1.328125,0.8125 1.328125,1.625 C 3.5625,-3.90625 3.078125,-3.125 2.515625,-2.5 l -1.90625,2.125 C 0.5,-0.265625 0.5,-0.234375 0.5,0 H 4.203125 L 4.46875,-1.734375 H 4.234375 C 4.171875,-1.4375 4.109375,-1 4,-0.84375 3.9375,-0.765625 3.28125,-0.765625 3.0625,-0.765625 Z m 0,0"
             id="id-ff12e321-c236-4392-8b27-659c8dfa3875" />
        </g>
        <g
           transform="translate(325.055,203.906)"
           id="g44">
          <path
             d="m 2.9375,-1.640625 v 0.859375 c 0,0.359375 -0.03125,0.46875 -0.765625,0.46875 H 1.96875 V 0 C 2.375,-0.03125 2.890625,-0.03125 3.3125,-0.03125 c 0.421875,0 0.9375,0 1.359375,0.03125 v -0.3125 h -0.21875 c -0.734375,0 -0.75,-0.109375 -0.75,-0.46875 V -1.640625 H 4.6875 v -0.3125 H 3.703125 v -4.53125 c 0,-0.203125 0,-0.265625 -0.171875,-0.265625 -0.078125,0 -0.109375,0 -0.1875,0.125 l -3.0625,4.671875 v 0.3125 z m 0.046875,-0.3125 H 0.5625 l 2.421875,-3.71875 z m 0,0"
             id="id-61079b5d-8132-49af-876b-afb703c1896e" />
        </g>
        <g
           transform="translate(330.036,203.906)"
           id="g45">
          <path
             d="m 4.46875,-2 c 0,-1.1875 -0.8125,-2.1875 -1.890625,-2.1875 -0.46875,0 -0.90625,0.15625 -1.265625,0.515625 V -5.625 c 0.203125,0.0625 0.53125,0.125 0.84375,0.125 1.234375,0 1.9375,-0.90625 1.9375,-1.03125 0,-0.0625 -0.03125,-0.109375 -0.109375,-0.109375 0,0 -0.03125,0 -0.078125,0.03125 C 3.703125,-6.515625 3.21875,-6.3125 2.546875,-6.3125 2.15625,-6.3125 1.6875,-6.390625 1.21875,-6.59375 1.140625,-6.625 1.125,-6.625 1.109375,-6.625 1,-6.625 1,-6.546875 1,-6.390625 V -3.4375 c 0,0.171875 0,0.25 0.140625,0.25 0.078125,0 0.09375,-0.015625 0.140625,-0.078125 C 1.390625,-3.421875 1.75,-3.96875 2.5625,-3.96875 c 0.515625,0 0.765625,0.453125 0.84375,0.640625 0.15625,0.375 0.1875,0.75 0.1875,1.25 0,0.359375 0,0.953125 -0.25,1.375 C 3.109375,-0.3125 2.734375,-0.0625 2.28125,-0.0625 c -0.71875,0 -1.296875,-0.53125 -1.46875,-1.109375 0.03125,0 0.0625,0.015625 0.171875,0.015625 0.328125,0 0.5,-0.25 0.5,-0.484375 0,-0.25 -0.171875,-0.5 -0.5,-0.5 C 0.84375,-2.140625 0.5,-2.0625 0.5,-1.609375 0.5,-0.75 1.1875,0.21875 2.296875,0.21875 3.453125,0.21875 4.46875,-0.734375 4.46875,-2 Z m 0,0"
             id="id-2174d634-ebb2-43cf-95c6-9891443e9343" />
        </g>
      </g>
      <g
         fill="#000000"
         fill-opacity="1"
         id="id-4e03f2bc-43b4-4ccd-9a2b-91c64c9a7cf8"
         transform="translate(-269.807,-135.768)">
        <g
           transform="translate(309.834,215.861)"
           id="g46">
          <path
             d="m 4.578125,-3.1875 c 0,-0.796875 -0.046875,-1.59375 -0.390625,-2.328125 -0.453125,-0.96875 -1.28125,-1.125 -1.6875,-1.125 -0.609375,0 -1.328125,0.265625 -1.75,1.1875 -0.3125,0.6875 -0.359375,1.46875 -0.359375,2.265625 0,0.75 0.03125,1.640625 0.453125,2.40625 0.421875,0.796875 1.15625,1 1.640625,1 0.53125,0 1.296875,-0.203125 1.734375,-1.15625 0.3125,-0.6875 0.359375,-1.46875 0.359375,-2.25 z M 2.484375,0 C 2.09375,0 1.5,-0.25 1.328125,-1.203125 1.21875,-1.796875 1.21875,-2.71875 1.21875,-3.3125 c 0,-0.640625 0,-1.296875 0.078125,-1.828125 0.1875,-1.1875 0.9375,-1.28125 1.1875,-1.28125 0.328125,0 0.984375,0.1875 1.171875,1.171875 0.109375,0.5625 0.109375,1.3125 0.109375,1.9375 0,0.75 0,1.421875 -0.109375,2.0625 C 3.5,-0.296875 2.9375,0 2.484375,0 Z m 0,0"
             id="id-4ae5d995-b518-4dd9-b85c-341265296f28" />
        </g>
      </g>
      <g
         fill="#000000"
         fill-opacity="1"
         id="id-68a482bb-4216-4ed8-bf49-0314938706ea"
         transform="translate(-269.807,-135.768)">
        <g
           transform="translate(314.816,215.861)"
           id="g47">
          <path
             d="m 1.90625,-0.53125 c 0,-0.28125 -0.234375,-0.53125 -0.515625,-0.53125 -0.296875,0 -0.53125,0.25 -0.53125,0.53125 C 0.859375,-0.234375 1.09375,0 1.390625,0 1.671875,0 1.90625,-0.234375 1.90625,-0.53125 Z m 0,0"
             id="id-101020e3-5301-49b0-bc7b-c2304ec9491d" />
        </g>
      </g>
      <g
         fill="#000000"
         fill-opacity="1"
         id="id-1ccd0c0c-eb70-422b-bb2b-1dc22a0e2011"
         transform="translate(-269.807,-135.768)">
        <g
           transform="translate(317.583,215.861)"
           id="g48">
          <path
             d="m 2.9375,-6.375 c 0,-0.25 0,-0.265625 -0.234375,-0.265625 C 2.078125,-6 1.203125,-6 0.890625,-6 v 0.3125 c 0.203125,0 0.78125,0 1.296875,-0.265625 v 5.171875 c 0,0.359375 -0.03125,0.46875 -0.921875,0.46875 h -0.3125 V 0 c 0.34375,-0.03125 1.203125,-0.03125 1.609375,-0.03125 0.390625,0 1.265625,0 1.609375,0.03125 v -0.3125 h -0.3125 c -0.90625,0 -0.921875,-0.109375 -0.921875,-0.46875 z m 0,0"
             id="id-9ed3c66a-b2e5-4dcc-83e9-caced6bfbc83" />
        </g>
        <g
           transform="translate(322.564,215.861)"
           id="g49">
          <path
             d="m 4.578125,-3.1875 c 0,-0.796875 -0.046875,-1.59375 -0.390625,-2.328125 -0.453125,-0.96875 -1.28125,-1.125 -1.6875,-1.125 -0.609375,0 -1.328125,0.265625 -1.75,1.1875 -0.3125,0.6875 -0.359375,1.46875 -0.359375,2.265625 0,0.75 0.03125,1.640625 0.453125,2.40625 0.421875,0.796875 1.15625,1 1.640625,1 0.53125,0 1.296875,-0.203125 1.734375,-1.15625 0.3125,-0.6875 0.359375,-1.46875 0.359375,-2.25 z M 2.484375,0 C 2.09375,0 1.5,-0.25 1.328125,-1.203125 1.21875,-1.796875 1.21875,-2.71875 1.21875,-3.3125 c 0,-0.640625 0,-1.296875 0.078125,-1.828125 0.1875,-1.1875 0.9375,-1.28125 1.1875,-1.28125 0.328125,0 0.984375,0.1875 1.171875,1.171875 0.109375,0.5625 0.109375,1.3125 0.109375,1.9375 0,0.75 0,1.421875 -0.109375,2.0625 C 3.5,-0.296875 2.9375,0 2.484375,0 Z m 0,0"
             id="id-94b1f4d2-1d7d-461b-ba4d-aaf2871624ad" />
        </g>
        <g
           transform="translate(327.546,215.861)"
           id="g50">
          <path
             d="m 2.9375,-6.375 c 0,-0.25 0,-0.265625 -0.234375,-0.265625 C 2.078125,-6 1.203125,-6 0.890625,-6 v 0.3125 c 0.203125,0 0.78125,0 1.296875,-0.265625 v 5.171875 c 0,0.359375 -0.03125,0.46875 -0.921875,0.46875 h -0.3125 V 0 c 0.34375,-0.03125 1.203125,-0.03125 1.609375,-0.03125 0.390625,0 1.265625,0 1.609375,0.03125 v -0.3125 h -0.3125 c -0.90625,0 -0.921875,-0.109375 -0.921875,-0.46875 z m 0,0"
             id="id-1df3e33b-7b1a-4d75-a462-10674df5183e" />
        </g>
      </g>
      <g
         fill="#000000"
         fill-opacity="1"
         id="id-2ea6f509-938f-49d3-ac0b-68794e1c199b"
         transform="translate(-269.807,-135.768)">
        <g
           transform="translate(312.325,227.816)"
           id="g51">
          <path
             d="m 4.578125,-3.1875 c 0,-0.796875 -0.046875,-1.59375 -0.390625,-2.328125 -0.453125,-0.96875 -1.28125,-1.125 -1.6875,-1.125 -0.609375,0 -1.328125,0.265625 -1.75,1.1875 -0.3125,0.6875 -0.359375,1.46875 -0.359375,2.265625 0,0.75 0.03125,1.640625 0.453125,2.40625 0.421875,0.796875 1.15625,1 1.640625,1 0.53125,0 1.296875,-0.203125 1.734375,-1.15625 0.3125,-0.6875 0.359375,-1.46875 0.359375,-2.25 z M 2.484375,0 C 2.09375,0 1.5,-0.25 1.328125,-1.203125 1.21875,-1.796875 1.21875,-2.71875 1.21875,-3.3125 c 0,-0.640625 0,-1.296875 0.078125,-1.828125 0.1875,-1.1875 0.9375,-1.28125 1.1875,-1.28125 0.328125,0 0.984375,0.1875 1.171875,1.171875 0.109375,0.5625 0.109375,1.3125 0.109375,1.9375 0,0.75 0,1.421875 -0.109375,2.0625 C 3.5,-0.296875 2.9375,0 2.484375,0 Z m 0,0"
             id="id-891ff371-587b-46e0-a2b4-cf55ea8e8459" />
        </g>
      </g>
      <g
         fill="#000000"
         fill-opacity="1"
         id="id-da792c0f-faca-479b-8b3d-6a5a08530a26"
         transform="translate(-269.807,-135.768)">
        <g
           transform="translate(317.306,227.816)"
           id="g52">
          <path
             d="m 1.90625,-0.53125 c 0,-0.28125 -0.234375,-0.53125 -0.515625,-0.53125 -0.296875,0 -0.53125,0.25 -0.53125,0.53125 C 0.859375,-0.234375 1.09375,0 1.390625,0 1.671875,0 1.90625,-0.234375 1.90625,-0.53125 Z m 0,0"
             id="id-5dcde28e-4bb3-42f8-9212-ce1b1c69fb1a" />
        </g>
      </g>
      <g
         fill="#000000"
         fill-opacity="1"
         id="id-b8fd47b6-87c2-4f84-a5d9-c5ccc480c234"
         transform="translate(-269.807,-135.768)">
        <g
           transform="translate(320.074,227.816)"
           id="g53">
          <path
             d="m 2.9375,-6.375 c 0,-0.25 0,-0.265625 -0.234375,-0.265625 C 2.078125,-6 1.203125,-6 0.890625,-6 v 0.3125 c 0.203125,0 0.78125,0 1.296875,-0.265625 v 5.171875 c 0,0.359375 -0.03125,0.46875 -0.921875,0.46875 h -0.3125 V 0 c 0.34375,-0.03125 1.203125,-0.03125 1.609375,-0.03125 0.390625,0 1.265625,0 1.609375,0.03125 v -0.3125 h -0.3125 c -0.90625,0 -0.921875,-0.109375 -0.921875,-0.46875 z m 0,0"
             id="id-ef14d3fd-e93d-42bf-9265-4aef35203baf" />
        </g>
        <g
           transform="translate(325.055,227.816)"
           id="g54">
          <path
             d="m 4.46875,-2 c 0,-1.1875 -0.8125,-2.1875 -1.890625,-2.1875 -0.46875,0 -0.90625,0.15625 -1.265625,0.515625 V -5.625 c 0.203125,0.0625 0.53125,0.125 0.84375,0.125 1.234375,0 1.9375,-0.90625 1.9375,-1.03125 0,-0.0625 -0.03125,-0.109375 -0.109375,-0.109375 0,0 -0.03125,0 -0.078125,0.03125 C 3.703125,-6.515625 3.21875,-6.3125 2.546875,-6.3125 2.15625,-6.3125 1.6875,-6.390625 1.21875,-6.59375 1.140625,-6.625 1.125,-6.625 1.109375,-6.625 1,-6.625 1,-6.546875 1,-6.390625 V -3.4375 c 0,0.171875 0,0.25 0.140625,0.25 0.078125,0 0.09375,-0.015625 0.140625,-0.078125 C 1.390625,-3.421875 1.75,-3.96875 2.5625,-3.96875 c 0.515625,0 0.765625,0.453125 0.84375,0.640625 0.15625,0.375 0.1875,0.75 0.1875,1.25 0,0.359375 0,0.953125 -0.25,1.375 C 3.109375,-0.3125 2.734375,-0.0625 2.28125,-0.0625 c -0.71875,0 -1.296875,-0.53125 -1.46875,-1.109375 0.03125,0 0.0625,0.015625 0.171875,0.015625 0.328125,0 0.5,-0.25 0.5,-0.484375 0,-0.25 -0.171875,-0.5 -0.5,-0.5 C 0.84375,-2.140625 0.5,-2.0625 0.5,-1.609375 0.5,-0.75 1.1875,0.21875 2.296875,0.21875 3.453125,0.21875 4.46875,-0.734375 4.46875,-2 Z m 0,0"
             id="id-07f0da9e-1701-46c7-bdd4-dff0f27ae0bd" />
        </g>
      </g>
      <g
         fill="#000000"
         fill-opacity="1"
         id="id-19e15228-7af1-4707-a686-3ef3e9f6ef3e"
         transform="translate(-269.807,-135.768)">
        <g
           transform="translate(335.018,136.159)"
           id="g55">
          <path
             d="m 2.703125,17.546875 h 0.6875 v -17.9375 H 0.0625 v 0.6875 h 2.640625 z m 0,0"
             id="id-b8f56a92-247c-4859-94da-e9c36e940f8c" />
        </g>
      </g>
      <g
         fill="#000000"
         fill-opacity="1"
         id="id-bcf51872-2ae6-41c2-9d32-97bd33f4c0cb"
         transform="translate(-269.807,-135.768)">
        <g
           transform="translate(335.018,153.694)"
           id="g56">
          <path
             d="m 2.703125,5.984375 h 0.6875 v -6 h -0.6875 z m 0,0"
             id="id-ebb96ac0-65e5-4785-bac6-c7969299a218" />
        </g>
      </g>
      <g
         fill="#000000"
         fill-opacity="1"
         id="id-484c1b87-f23b-4463-b231-4a8542e65d57"
         transform="translate(-269.807,-135.768)">
        <g
           transform="translate(335.018,159.671)"
           id="g57">
          <path
             d="m 2.703125,5.984375 h 0.6875 v -6 h -0.6875 z m 0,0"
             id="id-2be45fa9-88e9-44a5-84a7-6ec6a72cac60" />
        </g>
      </g>
      <g
         fill="#000000"
         fill-opacity="1"
         id="id-55594f45-d230-4ca1-aae5-408554572186"
         transform="translate(-269.807,-135.768)">
        <g
           transform="translate(335.018,165.649)"
           id="g58">
          <path
             d="m 2.703125,5.984375 h 0.6875 v -6 h -0.6875 z m 0,0"
             id="id-bad38ef6-8942-4cb0-a672-079a245fd86c" />
        </g>
      </g>
      <g
         fill="#000000"
         fill-opacity="1"
         id="id-8cb1cc01-fc14-43ac-86f8-7c8957b4610e"
         transform="translate(-269.807,-135.768)">
        <g
           transform="translate(335.018,171.627)"
           id="g59">
          <path
             d="m 2.703125,5.984375 h 0.6875 v -6 h -0.6875 z m 0,0"
             id="id-0cbac326-5c49-4bed-9760-35dc7a49f045" />
        </g>
      </g>
      <g
         fill="#000000"
         fill-opacity="1"
         id="id-00949ef7-b924-4dfa-b742-632ebae643e6"
         transform="translate(-269.807,-135.768)">
        <g
           transform="translate(335.018,177.604)"
           id="g60">
          <path
             d="m 2.703125,5.984375 h 0.6875 v -6 h -0.6875 z m 0,0"
             id="id-73604a5e-681a-42bf-a1c7-87fa2bafe1dd" />
        </g>
      </g>
      <g
         fill="#000000"
         fill-opacity="1"
         id="id-922fec88-2f44-41ee-a7e7-0a3aeabea1e1"
         transform="translate(-269.807,-135.768)">
        <g
           transform="translate(335.018,183.582)"
           id="g61">
          <path
             d="m 2.703125,5.984375 h 0.6875 v -6 h -0.6875 z m 0,0"
             id="id-01463b54-2640-4c99-9a44-0178e69ac4c0" />
        </g>
      </g>
      <g
         fill="#000000"
         fill-opacity="1"
         id="id-0f07feea-01e1-40cd-b134-8ab88c6aa287"
         transform="translate(-269.807,-135.768)">
        <g
           transform="translate(335.018,189.56)"
           id="g62">
          <path
             d="m 2.703125,5.984375 h 0.6875 v -6 h -0.6875 z m 0,0"
             id="id-6b449008-6bc7-453e-9686-41f414543d2f" />
        </g>
      </g>
      <g
         fill="#000000"
         fill-opacity="1"
         id="id-10c4dbbc-90f3-496a-a2a1-aea7bcdd53c3"
         transform="translate(-269.807,-135.768)">
        <g
           transform="translate(335.018,195.537)"
           id="g63">
          <path
             d="m 2.703125,5.984375 h 0.6875 v -6 h -0.6875 z m 0,0"
             id="id-87f13cf7-63fd-44da-8160-ead42d880918" />
        </g>
      </g>
      <g
         fill="#000000"
         fill-opacity="1"
         id="id-07603d96-5bcb-40c6-9e56-a72b213c3c4c"
         transform="translate(-269.807,-135.768)">
        <g
           transform="translate(335.018,201.515)"
           id="g64">
          <path
             d="m 2.703125,5.984375 h 0.6875 v -6 h -0.6875 z m 0,0"
             id="id-de2b0583-3c9b-41e8-9d7b-c3d61dd8cbc5" />
        </g>
      </g>
      <g
         fill="#000000"
         fill-opacity="1"
         id="id-cedd3a9e-79eb-4551-8725-c03fc59114ad"
         transform="translate(-269.807,-135.768)">
        <g
           transform="translate(335.018,207.493)"
           id="g65">
          <path
             d="m 2.703125,5.984375 h 0.6875 v -6 h -0.6875 z m 0,0"
             id="id-9a393ff6-a5ed-4e25-bd4c-f83245ce230e" />
        </g>
      </g>
      <g
         fill="#000000"
         fill-opacity="1"
         id="id-e2659405-6681-403d-88a5-8550ce8795b2"
         transform="translate(-269.807,-135.768)">
        <g
           transform="translate(335.018,213.869)"
           id="g66">
          <path
             d="M 2.703125,16.84375 H 0.0625 v 0.6875 h 3.328125 v -17.9375 h -0.6875 z m 0,0"
             id="id-d354e2fe-0f37-4226-b82d-e5b524333e96" />
        </g>
      </g>
    </g>
    <text
       xml:space="preserve"
       style="font-size:3.175px;text-align:start;writing-mode:lr-tb;direction:ltr;text-anchor:start;fill:none;stroke-width:0.264583"
       x="110.41547"
       y="57.464188"
       id="text67"><tspan
         sodipodi:role="line"
         id="tspan67"
         style="font-style:normal;font-variant:normal;font-weight:normal;font-stretch:normal;font-size:11.2889px;font-family:'TeX Gyre Termes';-inkscape-font-specification:'TeX Gyre Termes, Normal';font-variant-ligatures:normal;font-variant-caps:normal;font-variant-numeric:normal;font-variant-east-asian:normal;fill:#000000;stroke-width:0.264583"
         x="110.41547"
         y="57.464188">Feature</tspan></text>
    <rect
       style="opacity:1;mix-blend-mode:normal;fill:none;fill-opacity:1;fill-rule:evenodd;stroke:#000000;stroke-width:0.615128;stroke-dasharray:none;stroke-opacity:1"
       id="rect68"
       width="40.71479"
       height="20.542461"
       x="106.61271"
       y="44.334782" />
    <path
       style="opacity:1;fill:none;fill-opacity:1;fill-rule:evenodd;stroke:#000000;stroke-width:0;stroke-dasharray:none;stroke-opacity:1"
       d="m 61.074498,15.945559 c 3.700002,0.336324 7.288575,1.521283 10.830946,2.406876 0.620239,0.15506 1.210135,0.664571 1.805157,0.902579 0.910174,0.36407 1.78014,0.593381 2.707735,0.902579 0.994828,0.331609 0.302757,0.387633 1.504299,0.902579 0.380058,0.162882 0.844428,0.09571 1.203439,0.300859 0.369419,0.211097 0.570336,0.636784 0.902578,0.902579 0.704014,0.563211 1.666907,0.759456 2.406878,1.203438 0.550635,0.330382 0.969999,0.84724 1.504296,1.203439 0.672743,0.448495 1.448086,0.733486 2.106017,1.203438 0.346229,0.247305 0.570336,0.636785 0.902579,0.90258 0.456626,0.3653 1.036486,0.551717 1.504299,0.902578 1.161761,0.871321 2.17243,1.854968 3.309456,2.707736 0.358796,0.269097 0.844642,0.332623 1.203438,0.60172 2.164075,1.623058 -0.634928,-0.334068 0.902579,1.203436 0.571722,0.571723 1.459187,0.718318 2.106017,1.203439 1.457672,1.093253 2.510152,2.743655 3.911174,3.911177 0.385215,0.321008 0.848875,0.54801 1.203435,0.902578 1.53751,1.537507 -1.261493,-0.419618 0.90258,1.203439 0.1794,0.134549 0.44316,0.142293 0.60172,0.300858 0.44264,0.442637 0.96381,1.504299 1.5043,1.504299"
       id="path78" />
    <path
       style="opacity:1;fill:none;fill-opacity:1;fill-rule:evenodd;stroke:#000000;stroke-width:0;stroke-dasharray:none;stroke-opacity:1"
       d="m 101.08882,137.49284 c -1.203436,5.31518 -2.406874,10.63037 -5.014323,14.89255 -2.607449,4.26217 -6.61891,7.47134 -9.426933,9.17621 -2.808023,1.70487 -4.412607,1.90545 -5.565903,2.10602 -1.153296,0.20057 -1.855303,0.40115 -4.111748,0.45129 -2.256446,0.0501 -6.067335,-0.0501 -9.878224,-0.15043"
       id="path79"
       inkscape:path-effect="#path-effect79"
       inkscape:original-d="m 101.08882,137.49284 c -1.203435,5.31518 -2.406874,10.63037 -3.61031,15.94555 -4.011462,3.20917 -8.022923,6.41834 -12.034385,9.62751 -1.604584,0.20057 -3.209168,0.40115 -4.813755,0.60172 -0.702006,0.20057 -1.404011,0.40115 -2.106017,0.60172 -3.810886,-0.10029 -7.621775,-0.20057 -11.432664,-0.30086" />
    <path
       style="opacity:1;fill:none;fill-opacity:1;fill-rule:evenodd;stroke:#000000;stroke-width:0;stroke-dasharray:none;stroke-opacity:1"
       d="m 99.283667,120.34384 c -0.501433,0.50143 -1.071933,0.94222 -1.504299,1.50429 -1.646399,2.14033 -2.962968,4.52573 -4.212035,6.91978 -0.396348,0.75967 -0.468137,1.66833 -0.902578,2.40687 -0.579747,0.98557 -1.47175,1.75634 -2.106017,2.70774 -0.772822,1.15923 -1.333196,2.45108 -2.106017,3.61032 -3.595714,5.39357 -7.463864,10.60084 -11.131804,15.94555 -1.999054,2.91291 -3.741542,6.02259 -6.017194,8.72493 -0.595564,0.70724 -1.452229,1.15137 -2.106017,1.80516 -0.627719,0.62772 -0.932138,1.77115 -1.504296,2.40688 -0.618522,0.68724 -1.45223,1.15136 -2.106018,1.80515 -0.606904,0.60691 -0.887354,1.48908 -1.504299,2.10602"
       id="path80" />
    <path
       style="opacity:1;fill:#000000;fill-opacity:1;fill-rule:evenodd;stroke:#000000;stroke-width:0.7;stroke-dasharray:none;stroke-opacity:1;marker-end:url(#Triangle)"
       d="M 63.852103,14.301522 106.5043,41.217766"
       id="path81"
       sodipodi:nodetypes="cc" />
    <path
       style="fill:#000000;fill-opacity:1;fill-rule:evenodd;stroke:#000000;stroke-width:0.7;stroke-dasharray:none;stroke-opacity:1;marker-end:url(#Triangle-2)"
       d="M 69.214657,47.949183 102.8713,54.106115"
       id="path81-9"
       sodipodi:nodetypes="cc" />
    <ellipse
       style="opacity:1;fill:none;fill-opacity:1;fill-rule:evenodd;stroke:#0000ff;stroke-width:0.611435;stroke-dasharray:none;stroke-opacity:1"
       id="path82"
       cx="55.129772"
       cy="13.237819"
       rx="8.5408201"
       ry="6.9640527" />
    <ellipse
       style="fill:none;fill-opacity:1;fill-rule:evenodd;stroke:#0000ff;stroke-width:0.745947;stroke-dasharray:none;stroke-opacity:1"
       id="path82-5"
       cx="56.013252"
       cy="47.718391"
       rx="12.836027"
       ry="6.8967962" />
  </g>
</svg>
